<svg width="242" height="186" viewBox="0 0 242 186" fill="none" xmlns="http://www.w3.org/2000/svg">
<path d="M155.618 147.189H147.877V38.812C147.871 36.7608 147.053 34.7954 145.603 33.3449C144.153 31.8945 142.187 31.077 140.136 31.071H109.171C109.165 29.0198 108.347 27.0544 106.897 25.6039C105.447 24.1535 103.481 23.336 101.43 23.33H47.2421C45.1909 23.336 43.2255 24.1535 41.7751 25.6039C40.3246 27.0544 39.5071 29.0198 39.5011 31.071V147.189H31.7591C29.706 147.189 27.7371 148.005 26.2854 149.456C24.8336 150.908 24.0181 152.877 24.0181 154.93C24.0181 156.983 24.8336 158.952 26.2854 160.404C27.7371 161.855 29.706 162.671 31.7591 162.671H101.43C103.481 162.665 105.447 161.847 106.897 160.397C108.347 158.947 109.165 156.981 109.171 154.93V46.554H132.395V154.93C132.401 156.981 133.219 158.947 134.669 160.397C136.119 161.847 138.085 162.665 140.136 162.671H155.618C157.671 162.671 159.64 161.855 161.092 160.404C162.544 158.952 163.359 156.983 163.359 154.93C163.359 152.877 162.544 150.908 161.092 149.456C159.64 148.005 157.671 147.189 155.618 147.189ZM85.9481 100.742C83.8969 100.736 81.9315 99.9184 80.4811 98.468C79.0307 97.0176 78.2131 95.0521 78.2071 93.001C78.2131 90.9498 79.0307 88.9844 80.4811 87.5339C81.9315 86.0835 83.8969 85.266 85.9481 85.26C87.9992 85.266 89.9647 86.0835 91.4151 87.5339C92.8655 88.9844 93.683 90.9498 93.6891 93.001C93.683 95.0521 92.8655 97.0176 91.4151 98.468C89.9647 99.9184 87.9992 100.736 85.9481 100.742Z" fill="black"/>
<path d="M213.894 135.824H191.135V158.583C191.1 159.766 190.605 160.889 189.756 161.714C188.906 162.539 187.769 163 186.585 163C185.401 163 184.264 162.539 183.414 161.714C182.565 160.889 182.07 159.766 182.035 158.583V135.824H159.272C158.089 135.789 156.966 135.294 156.141 134.445C155.316 133.595 154.855 132.458 154.855 131.274C154.855 130.09 155.316 128.953 156.141 128.103C156.966 127.254 158.089 126.759 159.272 126.724H182.031V103.961C182.066 102.778 182.561 101.654 183.41 100.83C184.26 100.005 185.397 99.5438 186.581 99.5438C187.765 99.5438 188.902 100.005 189.752 100.83C190.601 101.654 191.096 102.778 191.131 103.961V126.72H213.894C215.077 126.755 216.201 127.25 217.025 128.099C217.85 128.949 218.311 130.086 218.311 131.27C218.311 132.454 217.85 133.591 217.025 134.441C216.201 135.29 215.077 135.785 213.894 135.82V135.824Z" fill="black"/>
</svg>
