<svg xmlns="http://www.w3.org/2000/svg" width="113.627" height="30" viewBox="0 0 113.627 30">
  <g id="Group_145" data-name="Group 145" transform="translate(-118.373 -167)">
    <path id="Icon_ionic-ios-clock" data-name="Icon ionic-ios-clock" d="M28.343,7.657a14.627,14.627,0,1,0,0,20.686A14.632,14.632,0,0,0,28.343,7.657ZM6.3,18.548a.563.563,0,1,1,.443-.443A.562.562,0,0,1,6.3,18.548Zm1.842,5.78a.561.561,0,1,1,.162-.6A.562.562,0,0,1,8.142,24.328ZM8.3,12.27a.559.559,0,1,1-.162-.6A.563.563,0,0,1,8.3,12.27Zm4.324,16.137a.559.559,0,1,1-.162-.6A.563.563,0,0,1,12.628,28.406ZM12.466,8.191a.561.561,0,1,1,.162-.6A.562.562,0,0,1,12.466,8.191Zm2.489,5.365a.563.563,0,1,1,.963-.584l2.37,4.38a2.279,2.279,0,0,1,.274,1.069V27a.562.562,0,0,1-1.125,0V18.422a1.157,1.157,0,0,0-.134-.534Zm3.157,16.8a.563.563,0,1,1,.443-.443A.562.562,0,0,1,18.112,30.361Zm0-23.625a.563.563,0,1,1,.443-.443A.562.562,0,0,1,18.112,6.736Zm6.166,21.916a.561.561,0,1,1,.162-.6A.562.562,0,0,1,24.279,28.652Zm.162-20.707a.559.559,0,1,1-.162-.6A.563.563,0,0,1,24.441,7.945Zm4.324,16.137a.559.559,0,1,1-.162-.6A.563.563,0,0,1,28.765,24.082ZM28.6,12.516a.561.561,0,1,1,.162-.6A.562.562,0,0,1,28.6,12.516Zm1.322,6.033a.563.563,0,1,1,.443-.443A.562.562,0,0,1,29.925,18.548Z" transform="translate(115.001 163.625)" fill="#626b9b"/>
    <circle id="Ellipse_9" data-name="Ellipse 9" cx="9" cy="9" r="9" transform="translate(125 174)" fill="#626b9b"/>
    <text id="IND_A_TIME" data-name="IND A TIME" transform="translate(149 191)" fill="#a6afdd" font-size="16" font-family="Poppins-Medium, Poppins" font-weight="500"><tspan x="0" y="0">IND A TIME</tspan></text>
    <rect id="Rectangle_59" data-name="Rectangle 59" width="3" height="1.5" transform="translate(135 185)" fill="#fff"/>
    <rect id="Rectangle_61" data-name="Rectangle 61" width="2" height="11" transform="translate(132 180)" fill="#fff"/>
    <rect id="Rectangle_62" data-name="Rectangle 62" width="2" height="8" transform="translate(132 182) rotate(-90)" fill="#fff"/>
  </g>
</svg>
