<svg xmlns="http://www.w3.org/2000/svg" xmlns:xlink="http://www.w3.org/1999/xlink" width="111.018" height="111.018" viewBox="0 0 111.018 111.018">
  <defs>
    <linearGradient id="linear-gradient" x1="0.5" x2="0.797" y2="0.89" gradientUnits="objectBoundingBox">
      <stop offset="0" stop-color="#66e6ae"/>
      <stop offset="1" stop-color="#31b98c"/>
    </linearGradient>
    <linearGradient id="linear-gradient-2" x2="0.5" y2="1" xlink:href="#linear-gradient"/>
  </defs>
  <g id="FindATime_Logo" data-name="FindATime Logo" transform="translate(-1167.491 -705.491)">
    <g id="search_black_24dp_1_" data-name="search_black_24dp(1)" transform="translate(1167.491 705.491)">
      <path id="Path_6" data-name="Path 6" d="M0,0H111.018V111.018H0Z" fill="none"/>
      <path id="Path_7" data-name="Path 7" d="M60.824,53.886H57.17l-1.3-1.249a30.152,30.152,0,1,0-3.238,3.238l1.249,1.3v3.654L73.545,80.484a4.874,4.874,0,0,0,6.892-6.892Zm-27.755,0A20.816,20.816,0,1,1,53.886,33.07,20.788,20.788,0,0,1,33.07,53.886Z" transform="translate(10.875 10.875)" fill="url(#linear-gradient)"/>
    </g>
    <g id="calendar_today_black_24dp" transform="translate(1199 737)">
      <path id="Path_8" data-name="Path 8" d="M0,0H24V24H0Z" fill="none"/>
      <path id="Path_9" data-name="Path 9" d="M20,3H19V2a1,1,0,0,0-2,0V3H7V2A1,1,0,0,0,5,2V3H4A2.006,2.006,0,0,0,2,5V21a2.006,2.006,0,0,0,2,2H20a2.006,2.006,0,0,0,2-2V5A2.006,2.006,0,0,0,20,3ZM19,21H5a1,1,0,0,1-1-1V8H20V20A1,1,0,0,1,19,21Z" fill="url(#linear-gradient-2)"/>
    </g>
  </g>
</svg>
