<svg width="471" height="436" viewBox="0 0 471 436" fill="none" xmlns="http://www.w3.org/2000/svg">
<g clip-path="url(#clip0_22_2)">
<path d="M235.21 435.42C365.113 435.42 470.42 375.65 470.42 301.92C470.42 228.19 365.113 168.42 235.21 168.42C105.307 168.42 0 228.19 0 301.92C0 375.65 105.307 435.42 235.21 435.42Z" fill="#EEF3FB"/>
<path d="M341.49 278.93L308.72 260.06C308.467 259.976 308.247 259.814 308.091 259.598C307.935 259.382 307.851 259.122 307.851 258.855C307.851 258.588 307.935 258.329 308.091 258.112C308.247 257.896 308.467 257.734 308.72 257.65L350.5 233.51C351.144 233.18 351.857 233.008 352.58 233.008C353.303 233.008 354.016 233.18 354.66 233.51L387.4 252.37C387.649 252.457 387.866 252.619 388.019 252.834C388.172 253.049 388.254 253.306 388.254 253.57C388.254 253.834 388.172 254.092 388.019 254.307C387.866 254.522 387.649 254.684 387.4 254.77L345.65 278.93C345.005 279.255 344.292 279.425 343.57 279.425C342.848 279.425 342.135 279.255 341.49 278.93V278.93Z" fill="#E0E0E0" fill-opacity="0.5"/>
<path d="M410.72 342.96C438.594 342.96 461.19 327.599 461.19 308.65C461.19 289.701 438.594 274.34 410.72 274.34C382.846 274.34 360.25 289.701 360.25 308.65C360.25 327.599 382.846 342.96 410.72 342.96Z" fill="#E0E0E0" fill-opacity="0.5"/>
<path d="M86.37 366.14L6.72 320.14C6.46936 320.056 6.25142 319.896 6.09699 319.681C5.94256 319.467 5.85947 319.209 5.85947 318.945C5.85947 318.681 5.94256 318.423 6.09699 318.209C6.25142 317.994 6.46936 317.834 6.72 317.75L131.53 245.7C132.168 245.374 132.874 245.205 133.59 245.205C134.306 245.205 135.012 245.374 135.65 245.7L215.33 291.7C215.577 291.786 215.791 291.947 215.943 292.16C216.094 292.373 216.176 292.628 216.176 292.89C216.176 293.152 216.094 293.407 215.943 293.62C215.791 293.833 215.577 293.994 215.33 294.08L90.49 366.14C89.8521 366.466 89.1462 366.636 88.43 366.636C87.7138 366.636 87.0078 366.466 86.37 366.14V366.14Z" fill="#E0E0E0" fill-opacity="0.5"/>
<path d="M96.88 358.84L115.3 369.47C116.074 369.866 116.931 370.072 117.8 370.072C118.669 370.072 119.526 369.866 120.3 369.47L349.47 237.16C350.85 236.36 350.85 235.07 349.47 234.27L330.9 223.55C330.125 223.159 329.268 222.955 328.4 222.955C327.532 222.955 326.675 223.159 325.9 223.55L96.88 355.93C95.5 356.75 95.5 358.04 96.88 358.84Z" fill="#E0E0E0"/>
<path d="M343.75 6.74994L109.4 142.06V326.56L109.43 359.72L107.36 358.52L104.11 356.65V139.01L338.46 3.68994L342.49 6.01994L343.75 6.74994Z" fill="#E6E6E6"/>
<path d="M343.75 6.75V191.26L117.32 321.98L112.04 325.03L110.73 325.79L109.43 326.53L109.4 326.56V142.06L343.75 6.75Z" fill="#F0F0F0"/>
<path d="M338.46 3.69995L343.75 6.74995L109.4 142.05L104.11 139L338.46 3.69995Z" fill="#F0F0F0"/>
<path d="M345.65 5.67994L343.75 6.78994L109.4 142.08L108.66 142.51V359.27L107.36 358.52V141.76L108.13 141.33L342.49 6.01994L344.36 4.93994L345.65 5.67994Z" fill="#8EAFEE"/>
<path opacity="0.1" d="M345.65 5.67994L343.75 6.78994L109.4 142.08L108.66 142.51V359.27L107.36 358.52V141.76L108.13 141.33L342.49 6.01994L344.36 4.93994L345.65 5.67994Z" fill="black"/>
<path d="M343.72 6.78997L109.4 142.09L108.66 142.51V359.28L109.43 359.72L345.64 223.72V5.71997L343.72 6.78997Z" fill="#8EAFEE"/>
<path opacity="0.05" d="M343.72 6.78997L109.4 142.09L108.66 142.51V359.28L109.43 359.72L345.64 223.72V5.71997L343.72 6.78997Z" fill="black"/>
<path d="M344.36 4.93994L345.65 5.68994L108.66 142.52L107.36 141.77L344.36 4.93994Z" fill="#8EAFEE"/>
<path opacity="0.4" d="M344.36 4.93994L345.65 5.68994L108.66 142.52L107.36 141.77L344.36 4.93994Z" fill="white"/>
<path d="M347.72 6.87988L345.65 8.06988L343.75 9.16988L279.2 46.4399L110.73 143.7V360.47L109.43 359.72V142.96L343.75 7.68988L345.65 6.58988L346.43 6.12988L347.72 6.87988Z" fill="#8EAFEE"/>
<path opacity="0.1" d="M347.72 6.87988L345.65 8.06988L343.75 9.16988L279.2 46.4399L110.73 143.7V360.47L109.43 359.72V142.96L343.75 7.68988L345.65 6.58988L346.43 6.12988L347.72 6.87988Z" fill="black"/>
<path d="M345.65 8.06993L343.72 9.17993L279.2 46.4399L110.72 143.72V360.47L112.03 361.23L117.18 358.11L347.72 224.93V6.92993L345.65 8.06993Z" fill="#8EAFEE"/>
<path d="M346.43 6.13989L347.72 6.87989L110.73 143.71L109.44 142.97L346.43 6.13989Z" fill="#8EAFEE"/>
<path opacity="0.4" d="M346.43 6.13989L347.72 6.87989L110.73 143.71L109.44 142.97L346.43 6.13989Z" fill="white"/>
<path d="M351.69 11.34L347.72 13.63L345.65 14.82L343.75 15.91L117.32 146.63L117.33 364.28L112.04 361.23V143.58L343.75 9.81003L345.65 8.71003L346.39 8.28003L347.72 9.05003L351.69 11.34Z" fill="#E6E6E6"/>
<path d="M346.39 8.28003L351.68 11.33L117.33 146.63L112.04 143.58L346.39 8.28003Z" fill="#F0F0F0"/>
<path d="M117.33 146.63V364.28L351.68 228.98V11.3298L117.33 146.63Z" fill="#FAFAFA"/>
<path d="M141.37 139.77C142.89 138.89 144.13 139.6 144.13 141.37C144.077 142.327 143.8 143.259 143.321 144.089C142.841 144.92 142.173 145.626 141.37 146.15C139.84 147.03 138.6 146.32 138.6 144.56C138.652 143.6 138.93 142.666 139.412 141.833C139.893 141.001 140.564 140.294 141.37 139.77Z" fill="#37474F"/>
<path d="M133.59 117.73C130.59 116 127.7 115.73 125.48 117.03C123.26 118.33 122.03 120.94 122.03 124.41C122.04 125.731 122.201 127.046 122.51 128.33L124.35 127.26C124.165 126.321 124.071 125.367 124.07 124.41C124.07 121.69 124.93 119.7 126.5 118.79C128.07 117.88 130.22 118.14 132.57 119.5C137.82 122.5 142.09 129.93 142.09 135.99C142.129 137.302 141.866 138.606 141.32 139.8C140.949 140.548 140.373 141.175 139.66 141.61C139.61 141.642 139.556 141.669 139.5 141.69C139.04 142.421 138.743 143.243 138.63 144.1C139.351 143.981 140.046 143.734 140.68 143.37C142.048 142.555 143.069 141.267 143.55 139.75C143.957 138.539 144.153 137.267 144.13 135.99C144.13 129.28 139.41 121.08 133.59 117.73Z" fill="#8EAFEE"/>
<path d="M154.79 132.02C156.31 131.14 157.55 131.86 157.55 133.62C157.496 134.578 157.218 135.511 156.739 136.342C156.259 137.174 155.592 137.882 154.79 138.41C153.26 139.29 152.02 138.57 152.02 136.81C152.074 135.85 152.353 134.917 152.834 134.085C153.315 133.252 153.985 132.545 154.79 132.02Z" fill="#37474F"/>
<path d="M147.01 109.98C144.01 108.25 141.12 107.98 138.9 109.28C136.68 110.58 135.45 113.19 135.45 116.66C135.46 117.981 135.621 119.296 135.93 120.58L137.77 119.51C137.584 118.571 137.49 117.617 137.49 116.66C137.49 113.94 138.35 111.95 139.92 111.04C141.49 110.13 143.64 110.39 145.99 111.75C151.24 114.75 155.51 122.18 155.51 128.25C155.554 129.559 155.291 130.861 154.74 132.05C154.368 132.798 153.793 133.425 153.08 133.86L152.92 133.95C152.459 134.677 152.162 135.496 152.05 136.35C152.754 136.229 153.431 135.985 154.05 135.63C155.416 134.809 156.436 133.518 156.92 132C157.321 130.791 157.518 129.524 157.5 128.25C157.55 121.53 152.83 113.34 147.01 109.98Z" fill="#8EAFEE"/>
<path d="M127.95 147.51C129.48 146.63 130.71 147.34 130.71 149.11C130.66 150.068 130.383 151 129.904 151.831C129.424 152.662 128.755 153.367 127.95 153.89C126.43 154.77 125.19 154.06 125.19 152.3C125.243 151.341 125.52 150.408 125.999 149.576C126.479 148.744 127.147 148.036 127.95 147.51Z" fill="#37474F"/>
<path d="M120.17 125.47C117.17 123.74 114.28 123.47 112.06 124.77C109.84 126.07 108.61 128.67 108.61 132.15C108.621 133.47 108.783 134.786 109.09 136.07L110.94 135C110.752 134.061 110.655 133.107 110.65 132.15C110.65 129.43 111.52 127.44 113.08 126.53C114.64 125.62 116.8 125.88 119.15 127.24C124.41 130.24 128.68 137.67 128.68 143.73C128.716 145.043 128.449 146.347 127.9 147.54C127.535 148.286 126.962 148.912 126.25 149.34L126.09 149.43C125.625 150.156 125.324 150.975 125.21 151.83C125.935 151.718 126.633 151.474 127.27 151.11C128.635 150.295 129.653 149.007 130.13 147.49C130.54 146.279 130.739 145.008 130.72 143.73C130.72 137.02 125.99 128.82 120.17 125.47Z" fill="#8EAFEE"/>
<path d="M168.21 124.28C169.73 123.39 170.97 124.11 170.97 125.87C170.917 126.829 170.64 127.762 170.161 128.594C169.681 129.426 169.013 130.133 168.21 130.66C166.68 131.54 165.44 130.82 165.44 129.06C165.493 128.101 165.772 127.169 166.253 126.338C166.734 125.508 167.405 124.803 168.21 124.28V124.28Z" fill="#37474F"/>
<path d="M160.43 102.24C157.43 100.5 154.54 100.24 152.31 101.53C150.08 102.82 148.87 105.44 148.87 108.91C148.88 110.231 149.041 111.546 149.35 112.83L151.19 111.76C151.004 110.821 150.91 109.867 150.91 108.91C150.91 106.19 151.77 104.2 153.33 103.3C154.89 102.4 157.06 102.64 159.41 104C164.66 107 168.93 114.43 168.93 120.5C168.968 121.812 168.705 123.116 168.16 124.31C167.785 125.053 167.21 125.677 166.5 126.11L166.34 126.2C165.881 126.928 165.584 127.747 165.47 128.6C166.191 128.484 166.885 128.241 167.52 127.88C168.886 127.059 169.906 125.769 170.39 124.25C170.791 123.041 170.988 121.774 170.97 120.5C170.97 113.78 166.24 105.59 160.43 102.24Z" fill="#8EAFEE"/>
<path d="M181.62 116.53C183.15 115.65 184.39 116.36 184.39 118.12C184.342 119.084 184.065 120.022 183.584 120.858C183.102 121.694 182.429 122.404 181.62 122.93C180.1 123.81 178.86 123.1 178.86 121.33C178.91 120.369 179.185 119.433 179.665 118.599C180.145 117.765 180.815 117.056 181.62 116.53V116.53Z" fill="#37474F"/>
<path d="M173.85 94.4898C170.85 92.7498 167.96 92.4898 165.73 93.7898C163.5 95.0898 162.29 97.6898 162.29 101.17C162.301 102.487 162.462 103.799 162.77 105.08L164.61 104.02C164.425 103.081 164.331 102.127 164.33 101.17C164.33 98.4498 165.19 96.4498 166.75 95.5498C168.31 94.6498 170.47 94.8998 172.83 96.2598C178.08 99.2598 182.35 106.68 182.35 112.75C182.389 114.062 182.126 115.366 181.58 116.56C181.205 117.303 180.63 117.926 179.92 118.36L179.76 118.45C179.301 119.178 179.004 119.997 178.89 120.85C179.612 120.739 180.307 120.495 180.94 120.13C182.308 119.311 183.329 118.02 183.81 116.5C184.211 115.291 184.408 114.023 184.39 112.75C184.39 106.04 179.66 97.8398 173.85 94.4898Z" fill="#8EAFEE"/>
<path d="M195.04 108.78C196.57 107.9 197.81 108.61 197.81 110.37C197.759 111.33 197.481 112.265 196.999 113.097C196.518 113.93 195.847 114.636 195.04 115.16C193.52 116.04 192.28 115.33 192.28 113.57C192.331 112.611 192.608 111.677 193.087 110.845C193.567 110.013 194.236 109.305 195.04 108.78V108.78Z" fill="#37474F"/>
<path d="M187.27 86.7398C184.27 84.9998 181.38 84.7398 179.15 86.0398C176.92 87.3398 175.72 89.9298 175.72 93.4198C175.731 94.7404 175.893 96.0555 176.2 97.3398L178.04 96.2698C177.855 95.331 177.761 94.3766 177.76 93.4198C177.76 90.6998 178.62 88.6998 180.18 87.7998C181.74 86.8998 183.9 87.1498 186.26 88.5098C191.51 91.5098 195.78 98.9298 195.78 105C195.821 106.313 195.554 107.618 195 108.81C194.632 109.554 194.06 110.179 193.35 110.61C193.299 110.644 193.245 110.674 193.19 110.7C192.731 111.428 192.434 112.247 192.32 113.1C193.025 112.983 193.702 112.739 194.32 112.38C195.685 111.562 196.706 110.275 197.19 108.76C197.591 107.548 197.788 106.277 197.77 105C197.81 98.2898 193.08 90.0898 187.27 86.7398Z" fill="#8EAFEE"/>
<path d="M208.46 101.03C209.99 100.15 211.23 100.86 211.23 102.63C211.177 103.588 210.898 104.521 210.417 105.352C209.936 106.182 209.265 106.887 208.46 107.41C206.94 108.29 205.7 107.58 205.7 105.82C205.753 104.861 206.03 103.928 206.509 103.096C206.989 102.264 207.657 101.556 208.46 101.03V101.03Z" fill="#37474F"/>
<path d="M200.72 78.9899C197.72 77.2599 194.83 76.9899 192.6 78.2899C190.37 79.5899 189.15 82.1899 189.15 85.6699C189.159 86.9912 189.324 88.3069 189.64 89.5899L191.48 88.5199C191.292 87.5815 191.194 86.627 191.19 85.6699C191.19 82.9499 192.06 80.9599 193.62 80.0499C195.18 79.1399 197.34 79.3999 199.7 80.7599C204.95 83.7599 209.22 91.1899 209.22 97.2499C209.262 98.5635 208.995 99.8687 208.44 101.06C208.069 101.805 207.498 102.432 206.79 102.87L206.63 102.95C206.171 103.678 205.874 104.497 205.76 105.35C206.483 105.244 207.179 104.999 207.81 104.63C209.178 103.815 210.199 102.527 210.68 101.01C211.081 99.7977 211.278 98.5268 211.26 97.2499C211.23 90.5399 206.5 82.3399 200.72 78.9899Z" fill="#8EAFEE"/>
<path d="M221.88 93.2799C223.41 92.3999 224.64 93.1199 224.64 94.8799C224.59 95.8379 224.313 96.7704 223.834 97.6011C223.354 98.4319 222.685 99.1374 221.88 99.6599C220.36 100.55 219.12 99.8299 219.12 98.0699C219.174 97.1115 219.452 96.179 219.931 95.3473C220.411 94.5155 221.078 93.8075 221.88 93.2799V93.2799Z" fill="#37474F"/>
<path d="M214.11 71.2399C211.11 69.5099 208.22 69.2399 205.99 70.5399C203.76 71.8399 202.54 74.4499 202.54 77.9199C202.549 79.2413 202.713 80.557 203.03 81.8399L204.87 80.7699C204.681 79.8316 204.584 78.8771 204.58 77.9199C204.58 75.1999 205.45 73.2099 207.01 72.2999C208.57 71.3899 210.73 71.6499 213.09 73.0099C218.34 76.0099 222.61 83.4399 222.61 89.5099C222.651 90.8202 222.384 92.1218 221.83 93.3099C221.465 94.0591 220.892 94.6875 220.18 95.1199L220.02 95.2099C219.559 95.937 219.262 96.7561 219.15 97.6099C219.853 97.487 220.53 97.2435 221.15 96.8899C222.513 96.0683 223.53 94.7776 224.01 93.2599C224.42 92.0529 224.619 90.7845 224.6 89.5099C224.65 82.7899 219.92 74.5999 214.11 71.2399Z" fill="#8EAFEE"/>
<path d="M235.3 85.54C236.83 84.65 238.06 85.37 238.06 87.13C238.01 88.0893 237.733 89.0232 237.254 89.8556C236.774 90.6879 236.105 91.3953 235.3 91.92C233.78 92.8 232.54 92.08 232.54 90.32C232.593 89.3625 232.87 88.4309 233.349 87.6005C233.829 86.7701 234.497 86.0643 235.3 85.54V85.54Z" fill="#37474F"/>
<path d="M227.53 63.4899C224.53 61.7599 221.64 61.4899 219.41 62.7899C217.18 64.0899 215.96 66.6999 215.96 70.1699C215.969 71.4913 216.133 72.807 216.45 74.0899L218.29 73.0199C218.101 72.0816 218.004 71.1271 218 70.1699C218 67.4499 218.87 65.4599 220.43 64.5599C221.99 63.6599 224.15 63.8999 226.51 65.2599C231.76 68.2599 236.03 75.6899 236.03 81.7599C236.07 83.0733 235.803 84.378 235.25 85.5699C234.885 86.3164 234.312 86.9415 233.6 87.3699L233.44 87.4599C232.973 88.1843 232.676 89.0047 232.57 89.8599C233.29 89.7427 233.984 89.4989 234.62 89.1399C235.986 88.3211 237.004 87.0294 237.48 85.5099C237.89 84.3029 238.089 83.0345 238.07 81.7599C238.07 75.0399 233.34 66.8499 227.53 63.4899Z" fill="#8EAFEE"/>
<path d="M248.72 77.79C250.25 76.91 251.48 77.62 251.48 79.38C251.43 80.3393 251.153 81.2732 250.674 82.1056C250.194 82.938 249.525 83.6453 248.72 84.17C247.2 85.05 245.96 84.33 245.96 82.57C246.013 81.6125 246.29 80.6809 246.769 79.8506C247.249 79.0202 247.917 78.3143 248.72 77.79V77.79Z" fill="#37474F"/>
<path d="M240.95 55.7498C237.95 54.0098 235.06 53.7498 232.83 55.0498C230.6 56.3498 229.38 58.9498 229.38 62.4298C229.389 63.7479 229.554 65.0602 229.87 66.3398L231.72 65.2798C231.532 64.3413 231.435 63.3869 231.43 62.4298C231.43 59.7098 232.3 57.7098 233.86 56.8098C235.42 55.9098 237.58 56.1498 239.94 57.5098C245.19 60.5098 249.46 67.9398 249.46 74.0098C249.501 75.3233 249.234 76.6282 248.68 77.8198C248.312 78.5644 247.74 79.1888 247.03 79.6198L246.87 79.7098C246.403 80.4342 246.106 81.2546 246 82.1098C246.72 81.9926 247.414 81.7488 248.05 81.3898C249.415 80.5703 250.433 79.2789 250.91 77.7598C251.32 76.5528 251.519 75.2844 251.5 74.0098C251.49 67.2998 246.72 59.0998 240.95 55.7498Z" fill="#8EAFEE"/>
<path d="M262.14 70.04C263.67 69.16 264.9 69.87 264.9 71.63C264.85 72.5895 264.575 73.5237 264.095 74.3562C263.615 75.1887 262.945 75.8959 262.14 76.42C260.62 77.3 259.38 76.59 259.38 74.83C259.431 73.8708 259.708 72.9372 260.187 72.105C260.667 71.2727 261.336 70.5652 262.14 70.04V70.04Z" fill="#37474F"/>
<path d="M254.37 47.9998C251.37 46.2598 248.48 45.9998 246.25 47.2998C244.02 48.5998 242.8 51.1998 242.8 54.6798C242.81 56.0011 242.975 57.3166 243.29 58.5998L245.13 57.5298C244.942 56.5913 244.845 55.6369 244.84 54.6798C244.84 51.9598 245.71 49.9598 247.27 49.0598C248.83 48.1598 250.99 48.4098 253.34 49.7698C258.6 52.7698 262.87 60.1898 262.87 66.2598C262.911 67.5733 262.644 68.8782 262.09 70.0698C261.722 70.8144 261.15 71.4388 260.44 71.8698L260.28 71.9598C259.813 72.6842 259.516 73.5046 259.41 74.3598C260.131 74.2466 260.826 74.0026 261.46 73.6398C262.823 72.822 263.84 71.5347 264.32 70.0198C264.73 68.8093 264.929 67.5376 264.91 66.2598C264.91 59.5498 260.18 51.3498 254.37 47.9998Z" fill="#8EAFEE"/>
<path d="M275.56 62.29C277.09 61.41 278.32 62.12 278.32 63.89C278.27 64.848 277.993 65.7804 277.514 66.6112C277.034 67.442 276.365 68.1475 275.56 68.67C274.04 69.55 272.8 68.84 272.8 67.08C272.853 66.1212 273.13 65.1882 273.609 64.3562C274.089 63.5242 274.757 62.8164 275.56 62.29V62.29Z" fill="#37474F"/>
<path d="M267.78 40.2499C264.78 38.5199 261.89 38.2499 259.67 39.5499C257.45 40.8499 256.22 43.4499 256.22 46.9299C256.231 48.2505 256.393 49.5656 256.7 50.8499L258.55 49.7799C258.362 48.8414 258.265 47.887 258.26 46.9299C258.26 44.2099 259.13 42.2199 260.69 41.3099C262.25 40.3999 264.41 40.6599 266.76 42.0199C272.02 45.0199 276.29 52.4499 276.29 58.5099C276.326 59.823 276.059 61.1267 275.51 62.3199C275.145 63.0664 274.572 63.6915 273.86 64.1199L273.7 64.2099C273.235 64.9359 272.934 65.7551 272.82 66.6099C273.545 66.4979 274.243 66.2538 274.88 65.8899C276.238 65.0713 277.248 63.7834 277.72 62.2699C278.13 61.0594 278.329 59.7877 278.31 58.5099C278.33 51.7999 273.6 43.5999 267.78 40.2499Z" fill="#8EAFEE"/>
<path d="M288.97 54.55C290.49 53.66 291.73 54.38 291.73 56.14C291.677 57.0988 291.4 58.0318 290.921 58.8638C290.441 59.6958 289.773 60.4035 288.97 60.93C287.44 61.81 286.2 61.09 286.2 59.33C286.253 58.3715 286.532 57.439 287.013 56.6084C287.494 55.7778 288.165 55.0726 288.97 54.55Z" fill="#37474F"/>
<path d="M281.19 32.5098C278.19 30.7698 275.3 30.5098 273.07 31.8098C270.84 33.1098 269.63 35.7098 269.63 39.1898C269.641 40.5072 269.802 41.819 270.11 43.0998L271.95 42.0298C271.765 41.0945 271.671 40.1434 271.67 39.1898C271.67 36.4598 272.53 34.4698 274.1 33.5698C275.67 32.6698 277.82 32.9098 280.17 34.2698C285.42 37.2698 289.69 44.6998 289.69 50.7698C289.729 52.0821 289.466 53.3858 288.92 54.5798C288.545 55.323 287.97 55.9465 287.26 56.3798L287.1 56.4698C286.641 57.1982 286.344 58.0167 286.23 58.8698C286.951 58.7542 287.645 58.5104 288.28 58.1498C289.646 57.3286 290.666 56.0383 291.15 54.5198C291.551 53.311 291.748 52.0435 291.73 50.7698C291.72 44.0598 287 35.8598 281.19 32.5098Z" fill="#8EAFEE"/>
<path d="M302.38 46.8C303.91 45.92 305.15 46.63 305.15 48.39C305.099 49.3502 304.821 50.2847 304.339 51.1171C303.858 51.9496 303.187 52.6564 302.38 53.18C300.86 54.06 299.62 53.35 299.62 51.58C299.673 50.6225 299.95 49.691 300.429 48.8606C300.909 48.0302 301.577 47.3243 302.38 46.8Z" fill="#37474F"/>
<path d="M294.61 24.7598C291.61 23.0198 288.72 22.7598 286.49 24.0598C284.26 25.3598 283.05 27.9598 283.05 31.4398C283.061 32.7572 283.222 34.069 283.53 35.3498L285.37 34.2898C285.185 33.3511 285.091 32.3966 285.09 31.4398C285.09 28.7198 285.95 26.7198 287.51 25.8198C289.07 24.9198 291.23 25.1698 293.59 26.5298C298.84 29.5298 303.11 36.9498 303.11 43.0198C303.149 44.3321 302.886 45.6358 302.34 46.8298C301.982 47.5717 301.42 48.1961 300.72 48.6298C300.669 48.6636 300.615 48.6937 300.56 48.7198C300.101 49.4482 299.804 50.2667 299.69 51.1198C300.412 51.0088 301.107 50.7647 301.74 50.3998C303.103 49.5804 304.123 48.2941 304.61 46.7798C305.011 45.5676 305.208 44.2967 305.19 43.0198C305.15 36.3098 300.42 28.1098 294.61 24.7598Z" fill="#8EAFEE"/>
<path d="M315.8 39.05C317.33 38.17 318.57 38.88 318.57 40.64C318.519 41.6002 318.241 42.5347 317.759 43.3671C317.278 44.1996 316.607 44.9064 315.8 45.43C314.28 46.31 313.04 45.6 313.04 43.84C313.093 42.8812 313.37 41.9482 313.849 41.1162C314.329 40.2842 314.997 39.5764 315.8 39.05V39.05Z" fill="#37474F"/>
<path d="M308.03 17.0099C305.03 15.2799 302.14 15.0099 299.91 16.3099C297.68 17.6099 296.47 20.2099 296.47 23.6899C296.481 25.0105 296.643 26.3256 296.95 27.6099L298.79 26.5399C298.605 25.6012 298.511 24.6467 298.51 23.6899C298.51 20.9699 299.37 18.9799 300.93 18.0699C302.49 17.1599 304.65 17.4199 307.01 18.7799C312.26 21.7799 316.53 29.1999 316.53 35.2699C316.571 36.5834 316.304 37.8883 315.75 39.0799C315.382 39.8245 314.81 40.4489 314.1 40.8799C314.051 40.9173 313.997 40.9477 313.94 40.9699C313.481 41.6983 313.184 42.5168 313.07 43.3699C313.775 43.253 314.452 43.009 315.07 42.6499C316.435 41.8326 317.456 40.5456 317.94 39.0299C318.341 37.8177 318.537 36.5468 318.52 35.2699C318.57 28.5599 313.84 20.3599 308.03 17.0099Z" fill="#8EAFEE"/>
<path d="M329.22 31.3C330.75 30.42 331.99 31.13 331.99 32.9C331.937 33.8585 331.658 34.7909 331.177 35.6215C330.696 36.4521 330.025 37.1574 329.22 37.68C327.7 38.56 326.46 37.85 326.46 36.09C326.513 35.1312 326.79 34.1982 327.269 33.3662C327.749 32.5342 328.417 31.8264 329.22 31.3Z" fill="#37474F"/>
<path d="M321.45 9.25994C318.45 7.52994 315.56 7.25993 313.33 8.55993C311.1 9.85993 309.88 12.4599 309.88 15.9399C309.889 17.2613 310.053 18.577 310.37 19.8599L312.21 18.7899C312.025 17.8512 311.931 16.8968 311.93 15.9399C311.93 13.2199 312.79 11.2299 314.35 10.3199C315.91 9.40993 318.07 9.66993 320.43 11.0299C325.68 14.0299 329.95 21.4599 329.95 27.5199C329.992 28.8335 329.725 30.1387 329.17 31.3299C328.799 32.0751 328.228 32.702 327.52 33.1399L327.36 33.2199C326.901 33.9483 326.604 34.7668 326.49 35.6199C327.213 35.5136 327.909 35.2692 328.54 34.8999C329.908 34.0854 330.929 32.7973 331.41 31.2799C331.812 30.0678 332.008 28.7969 331.99 27.5199C331.99 20.8099 327.26 12.6099 321.45 9.25994Z" fill="#8EAFEE"/>
<path d="M342.64 23.5499C344.17 22.6699 345.4 23.3899 345.4 25.1499C345.35 26.1079 345.073 27.0404 344.594 27.8711C344.114 28.7019 343.445 29.4074 342.64 29.9299C341.12 30.8199 339.88 30.0999 339.88 28.3399C339.934 27.3815 340.212 26.4491 340.691 25.6173C341.171 24.7855 341.838 24.0775 342.64 23.5499V23.5499Z" fill="#37474F"/>
<path d="M334.87 1.50994C331.87 -0.220065 328.98 -0.490066 326.75 0.809934C324.52 2.10993 323.3 4.71993 323.3 8.18993C323.309 9.5113 323.473 10.827 323.79 12.1099L325.63 11.0399C325.441 10.1016 325.344 9.14709 325.34 8.18993C325.34 5.46993 326.21 3.47993 327.77 2.56993C329.33 1.65993 331.49 1.91993 333.85 3.27993C339.1 6.27993 343.37 13.7099 343.37 19.7799C343.411 21.0902 343.144 22.3918 342.59 23.5799C342.228 24.3311 341.655 24.9602 340.94 25.3899L340.78 25.4799C340.319 26.207 340.022 27.0261 339.91 27.8799C340.631 27.7643 341.325 27.5205 341.96 27.1599C343.326 26.3411 344.344 25.0494 344.82 23.5299C345.23 22.3229 345.429 21.0545 345.41 19.7799C345.41 13.0599 340.72 4.86994 334.87 1.50994Z" fill="#8EAFEE"/>
<path opacity="0.4" d="M334.87 1.50994C331.87 -0.220065 328.98 -0.490066 326.75 0.809934C324.52 2.10993 323.3 4.71993 323.3 8.18993C323.314 9.03448 323.391 9.87681 323.53 10.7099C322.877 10.1709 322.182 9.68595 321.45 9.25994C318.45 7.52994 315.56 7.25993 313.33 8.55993C311.1 9.85993 309.88 12.4599 309.88 15.9399C309.893 16.7812 309.97 17.6202 310.11 18.4499C309.455 17.9173 308.759 17.4359 308.03 17.0099C305.03 15.2699 302.14 15.0099 299.91 16.3099C297.68 17.6099 296.47 20.2099 296.47 23.6899C296.48 24.5309 296.554 25.37 296.69 26.1999C296.035 25.6673 295.339 25.1859 294.61 24.7599C291.61 23.0199 288.72 22.7599 286.49 24.0599C284.26 25.3599 283.05 27.9599 283.05 31.4399C283.06 32.2809 283.134 33.1199 283.27 33.9499C282.617 33.4141 281.921 32.9325 281.19 32.5099C278.19 30.7699 275.3 30.5099 273.07 31.8099C270.84 33.1099 269.63 35.7099 269.63 39.1899C269.64 40.0243 269.714 40.8567 269.85 41.6799C269.198 41.1506 268.506 40.6725 267.78 40.2499C264.78 38.5199 261.89 38.2499 259.67 39.5499C257.45 40.8499 256.22 43.4499 256.22 46.9299C256.233 47.7712 256.31 48.6102 256.45 49.4399C255.795 48.9073 255.099 48.4259 254.37 47.9999C251.37 46.2599 248.47 45.9999 246.25 47.2999C244.03 48.5999 242.8 51.1999 242.8 54.6799C242.813 55.5212 242.89 56.3602 243.03 57.1899C242.377 56.6541 241.681 56.1725 240.95 55.7499C237.95 54.0099 235.06 53.7499 232.83 55.0499C230.6 56.3499 229.38 58.9499 229.38 62.4299C229.394 63.2712 229.471 64.1102 229.61 64.9399C228.955 64.4042 228.259 63.9194 227.53 63.4899C224.53 61.7599 221.64 61.4899 219.41 62.7899C217.18 64.0899 215.96 66.6999 215.96 70.1699C215.973 71.0145 216.05 71.8569 216.19 72.6899C215.537 72.1509 214.842 71.6659 214.11 71.2399C211.11 69.5099 208.22 69.2399 205.99 70.5399C203.76 71.8399 202.54 74.4499 202.54 77.9199C202.553 78.7612 202.63 79.6002 202.77 80.4299C202.115 79.8973 201.419 79.4159 200.69 78.9899C197.69 77.2599 194.8 76.9899 192.57 78.2899C190.34 79.5899 189.12 82.1899 189.12 85.6699C189.133 86.5112 189.21 87.3502 189.35 88.1799C188.695 87.6473 187.999 87.1659 187.27 86.7399C184.27 84.9999 181.38 84.7399 179.15 86.0399C176.92 87.3399 175.72 89.9299 175.72 93.4199C175.733 94.2612 175.81 95.1002 175.95 95.9299C175.295 95.3973 174.599 94.9159 173.87 94.4899C170.87 92.7499 167.98 92.4899 165.75 93.7899C163.52 95.0899 162.31 97.6899 162.31 101.17C162.32 102.011 162.394 102.85 162.53 103.68C161.877 103.144 161.181 102.662 160.45 102.24C157.45 100.5 154.56 100.24 152.33 101.53C150.1 102.82 148.89 105.44 148.89 108.91C148.9 109.754 148.974 110.597 149.11 111.43C148.457 110.891 147.762 110.406 147.03 109.98C144.03 108.25 141.14 107.98 138.92 109.28C136.7 110.58 135.47 113.19 135.47 116.66C135.479 117.505 135.556 118.347 135.7 119.18C135.042 118.643 134.343 118.158 133.61 117.73C130.61 116 127.72 115.73 125.5 117.03C123.28 118.33 122.05 120.94 122.05 124.41C122.052 125.244 122.122 126.077 122.26 126.9C121.608 126.371 120.916 125.893 120.19 125.47C117.19 123.74 114.3 123.47 112.08 124.77C109.86 126.07 108.63 128.67 108.63 132.15C108.641 133.471 108.803 134.786 109.11 136.07L110.96 135C110.772 134.061 110.675 133.107 110.67 132.15C110.67 129.43 111.54 127.44 113.1 126.53C114.66 125.62 116.82 125.88 119.17 127.24C124.43 130.24 128.7 137.67 128.7 143.73C128.736 145.043 128.469 146.347 127.92 147.54C127.555 148.286 126.982 148.912 126.27 149.34L126.11 149.43C125.645 150.156 125.344 150.975 125.23 151.83C125.955 151.718 126.653 151.474 127.29 151.11C128.655 150.295 129.673 149.007 130.15 147.49C130.56 146.279 130.759 145.008 130.74 143.73C130.74 138.29 127.63 131.87 123.35 127.85L124.35 127.26C124.165 126.321 124.071 125.367 124.07 124.41C124.07 121.69 124.93 119.7 126.5 118.79C128.07 117.88 130.22 118.14 132.57 119.5C137.82 122.5 142.09 129.93 142.09 135.99C142.129 137.302 141.866 138.606 141.32 139.8C140.949 140.548 140.373 141.176 139.66 141.61C139.61 141.642 139.556 141.669 139.5 141.69C139.04 142.421 138.743 143.243 138.63 144.1C139.351 143.981 140.046 143.734 140.68 143.37C142.048 142.555 143.069 141.267 143.55 139.75C143.957 138.539 144.153 137.267 144.13 135.99C144.13 130.55 141.02 124.13 136.74 120.11L137.74 119.51C137.554 118.571 137.46 117.617 137.46 116.66C137.46 113.94 138.32 111.95 139.89 111.04C141.46 110.13 143.61 110.39 145.96 111.75C151.21 114.75 155.48 122.18 155.48 128.25C155.524 129.559 155.261 130.861 154.71 132.05C154.338 132.798 153.763 133.425 153.05 133.86L152.89 133.95C152.429 134.677 152.132 135.496 152.02 136.35C152.724 136.229 153.401 135.985 154.02 135.63C155.386 134.809 156.406 133.518 156.89 132C157.291 130.791 157.488 129.524 157.47 128.25C157.47 122.8 154.36 116.38 150.08 112.36L151.08 111.76C150.894 110.821 150.8 109.867 150.8 108.91C150.8 106.19 151.66 104.2 153.23 103.3C154.8 102.4 156.95 102.64 159.3 104C164.55 107 168.82 114.43 168.82 120.5C168.858 121.812 168.595 123.116 168.05 124.31C167.675 125.053 167.1 125.677 166.39 126.11L166.23 126.2C165.771 126.928 165.474 127.747 165.36 128.6C166.081 128.484 166.775 128.24 167.41 127.88C168.776 127.059 169.796 125.768 170.28 124.25C170.681 123.041 170.878 121.774 170.86 120.5C170.86 115.05 167.75 108.63 163.47 104.61L164.47 104.02C164.285 103.081 164.191 102.127 164.19 101.17C164.19 98.4499 165.05 96.4499 166.61 95.5499C168.17 94.6499 170.33 94.8999 172.69 96.2599C177.94 99.2599 182.21 106.68 182.21 112.75C182.249 114.062 181.986 115.366 181.44 116.56C181.065 117.303 180.49 117.927 179.78 118.36L179.62 118.45C179.161 119.178 178.864 119.997 178.75 120.85C179.472 120.739 180.167 120.495 180.8 120.13C182.168 119.312 183.189 118.02 183.67 116.5C184.071 115.291 184.268 114.024 184.25 112.75C184.25 107.3 181.14 100.88 176.86 96.8599L177.86 96.2699C177.675 95.3311 177.581 94.3767 177.58 93.4199C177.58 90.6999 178.44 88.6999 180 87.7999C181.56 86.8999 183.72 87.1499 186.08 88.5099C191.33 91.5099 195.6 98.9299 195.6 105C195.641 106.313 195.374 107.618 194.82 108.81C194.452 109.555 193.88 110.179 193.17 110.61C193.119 110.644 193.065 110.674 193.01 110.7C192.551 111.428 192.254 112.247 192.14 113.1C192.845 112.983 193.522 112.739 194.14 112.38C195.505 111.563 196.526 110.276 197.01 108.76C197.411 107.548 197.608 106.277 197.59 105C197.59 99.5599 194.48 93.1399 190.2 89.1199L191.2 88.5199C191.012 87.5815 190.914 86.6271 190.91 85.6699C190.91 82.9499 191.78 80.9599 193.34 80.0499C194.9 79.1399 197.06 79.3999 199.42 80.7599C204.67 83.7599 208.94 91.1899 208.94 97.2499C208.982 98.5635 208.715 99.8687 208.16 101.06C207.789 101.805 207.218 102.432 206.51 102.87L206.35 102.95C205.891 103.678 205.594 104.497 205.48 105.35C206.203 105.244 206.899 104.999 207.53 104.63C208.898 103.815 209.919 102.527 210.4 101.01C210.801 99.7977 210.998 98.5268 210.98 97.2499C210.98 91.8099 207.87 85.3899 203.59 81.3699L204.59 80.7699C204.401 79.8316 204.304 78.8771 204.3 77.9199C204.3 75.1999 205.17 73.2099 206.73 72.2999C208.29 71.3899 210.45 71.6499 212.81 73.0099C218.06 76.0099 222.33 83.4399 222.33 89.5099C222.371 90.8202 222.104 92.1218 221.55 93.3099C221.185 94.0592 220.612 94.6875 219.9 95.1199L219.74 95.2099C219.279 95.937 218.982 96.7561 218.87 97.6099C219.573 97.487 220.25 97.2435 220.87 96.8899C222.233 96.0683 223.25 94.7777 223.73 93.2599C224.14 92.0529 224.339 90.7845 224.32 89.5099C224.32 84.0599 221.21 77.6399 216.93 73.6199L217.93 73.0199C217.741 72.0816 217.644 71.1271 217.64 70.1699C217.64 67.4499 218.51 65.4599 220.07 64.5599C221.63 63.6599 223.79 63.8999 226.15 65.2599C231.4 68.2599 235.67 75.6899 235.67 81.7599C235.71 83.0733 235.443 84.378 234.89 85.5699C234.528 86.3184 233.954 86.9443 233.24 87.3699L233.08 87.4599C232.613 88.1843 232.316 89.0047 232.21 89.8599C232.93 89.7427 233.624 89.4989 234.26 89.1399C235.626 88.3211 236.644 87.0294 237.12 85.5099C237.53 84.3029 237.729 83.0345 237.71 81.7599C237.71 76.3099 234.6 69.8899 230.32 65.8699L231.32 65.2799C231.132 64.3414 231.035 63.387 231.03 62.4299C231.03 59.7099 231.9 57.7099 233.46 56.8099C235.02 55.9099 237.18 56.1499 239.54 57.5099C244.79 60.5099 249.06 67.9399 249.06 74.0099C249.101 75.3234 248.834 76.6283 248.28 77.8199C247.912 78.5645 247.34 79.1889 246.63 79.6199L246.47 79.7099C246.003 80.4343 245.706 81.2547 245.6 82.1099C246.32 81.9927 247.014 81.7489 247.65 81.3899C249.015 80.5704 250.033 79.279 250.51 77.7599C250.92 76.5529 251.119 75.2845 251.1 74.0099C251.1 68.5599 247.99 62.1399 243.71 58.1199L244.71 57.5299C244.522 56.5914 244.425 55.637 244.42 54.6799C244.42 51.9599 245.29 49.9599 246.85 49.0599C248.41 48.1599 250.57 48.4099 252.93 49.7699C258.18 52.7699 262.45 60.1899 262.45 66.2599C262.491 67.5734 262.224 68.8783 261.67 70.0699C261.302 70.8145 260.73 71.4389 260.02 71.8699L259.86 71.9599C259.393 72.6843 259.096 73.5047 258.99 74.3599C259.711 74.2467 260.406 74.0027 261.04 73.6399C262.403 72.8221 263.42 71.5348 263.9 70.0199C264.31 68.8094 264.509 67.5377 264.49 66.2599C264.49 60.8199 261.38 54.3999 257.1 50.3799L258.1 49.7799C257.912 48.8414 257.815 47.887 257.81 46.9299C257.81 44.2099 258.68 42.2199 260.24 41.3099C261.8 40.3999 263.96 40.6599 266.31 42.0199C271.57 45.0199 275.84 52.4499 275.84 58.5099C275.876 59.823 275.609 61.1267 275.06 62.3199C274.695 63.0664 274.122 63.6915 273.41 64.1199L273.25 64.2099C272.783 64.9343 272.486 65.7547 272.38 66.6099C273.101 66.4967 273.796 66.2527 274.43 65.8899C275.957 65.1594 277.138 63.8601 277.72 62.2699C278.13 61.0594 278.329 59.7877 278.31 58.5099C278.31 53.0699 275.2 46.6399 270.92 42.6199L271.92 42.0299C271.735 41.0946 271.641 40.1434 271.64 39.1899C271.64 36.4599 272.5 34.4699 274.06 33.5699C275.62 32.6699 277.79 32.9099 280.14 34.2699C285.39 37.2699 289.66 44.6999 289.66 50.7699C289.699 52.0822 289.436 53.3859 288.89 54.5799C288.515 55.3231 287.94 55.9465 287.23 56.3799L287.07 56.4699C286.611 57.1983 286.314 58.0168 286.2 58.8699C286.921 58.7543 287.615 58.5105 288.25 58.1499C289.616 57.3287 290.636 56.0384 291.12 54.5199C291.521 53.3111 291.718 52.0436 291.7 50.7699C291.72 45.3199 288.62 38.9299 284.34 34.9299L285.34 34.3399C285.155 33.4012 285.061 32.4467 285.06 31.4899C285.06 28.7699 285.92 26.7699 287.48 25.8699C289.04 24.9699 291.2 25.2199 293.56 26.5799C298.81 29.5799 303.08 36.9999 303.08 43.0699C303.119 44.3822 302.856 45.6859 302.31 46.8799C301.953 47.5995 301.402 48.2054 300.72 48.6299C300.669 48.6637 300.615 48.6938 300.56 48.7199C300.101 49.4483 299.804 50.2668 299.69 51.1199C300.412 51.0089 301.107 50.7648 301.74 50.3999C303.103 49.5805 304.123 48.2942 304.61 46.7799C305.011 45.5677 305.208 44.2968 305.19 43.0199C305.19 37.5799 302.08 31.1599 297.8 27.1299L298.8 26.5399C298.615 25.6012 298.521 24.6467 298.52 23.6899C298.52 20.9699 299.38 18.9799 300.94 18.0699C302.5 17.1599 304.66 17.4199 307.02 18.7799C312.27 21.7799 316.54 29.1999 316.54 35.2699C316.581 36.5834 316.314 37.8883 315.76 39.0799C315.392 39.8245 314.82 40.4489 314.11 40.8799C314.059 40.9137 314.005 40.9438 313.95 40.9699C313.491 41.6983 313.194 42.5168 313.08 43.3699C313.785 43.253 314.462 43.009 315.08 42.6499C316.445 41.8326 317.466 40.5456 317.95 39.0299C318.351 37.8177 318.548 36.5468 318.53 35.2699C318.53 29.8299 315.42 23.4099 311.14 19.3899L312.14 18.7899C311.974 17.846 311.901 16.8881 311.92 15.9299C311.92 13.2099 312.79 11.2199 314.35 10.3099C315.91 9.39993 318.07 9.65993 320.43 11.0199C325.68 14.0199 329.95 21.4499 329.95 27.5099C329.992 28.8235 329.725 30.1287 329.17 31.3199C328.799 32.0651 328.228 32.692 327.52 33.1299L327.36 33.2099C326.901 33.9383 326.604 34.7568 326.49 35.6099C327.213 35.5036 327.909 35.2592 328.54 34.8899C329.908 34.0754 330.929 32.7873 331.41 31.2699C331.812 30.0578 332.008 28.7869 331.99 27.5099C331.99 22.0699 328.88 15.6499 324.6 11.6299L325.6 11.0299C325.411 10.0916 325.314 9.1371 325.31 8.17993C325.31 5.45993 326.18 3.46993 327.74 2.55993C329.3 1.64993 331.46 1.90993 333.82 3.26993C339.07 6.26993 343.34 13.6999 343.34 19.7699C343.381 21.0802 343.114 22.3818 342.56 23.5699C342.198 24.3211 341.625 24.9502 340.91 25.3799L340.75 25.4699C340.289 26.197 339.992 27.0161 339.88 27.8699C340.6 27.7527 341.294 27.5089 341.93 27.1499C343.296 26.3311 344.314 25.0394 344.79 23.5199C345.2 22.3129 345.399 21.0445 345.38 19.7699C345.41 13.0599 340.72 4.86994 334.87 1.50994Z" fill="black"/>
<path d="M147.07 164.1L163.83 154.37C165.07 153.65 166.08 154.16 166.09 155.5C166.042 156.255 165.813 156.988 165.423 157.637C165.034 158.286 164.494 158.832 163.85 159.23L147.07 168.93C145.83 169.64 144.82 169.13 144.82 167.79C144.882 167.042 145.118 166.319 145.508 165.679C145.899 165.038 146.434 164.497 147.07 164.1V164.1Z" fill="#8EAFEE"/>
<path d="M175.72 147.56L192.48 137.82C193.72 137.11 194.73 137.61 194.74 138.96C194.685 139.714 194.454 140.444 194.065 141.092C193.676 141.74 193.14 142.287 192.5 142.69L175.72 152.41C174.48 153.13 173.47 152.62 173.47 151.28C173.526 150.527 173.759 149.797 174.15 149.151C174.541 148.504 175.079 147.959 175.72 147.56V147.56Z" fill="#8EAFEE"/>
<path d="M204.38 131.01L221.15 121.28C222.39 120.56 223.4 121.07 223.41 122.41C223.358 123.164 223.127 123.896 222.738 124.544C222.349 125.192 221.811 125.739 221.17 126.14L204.39 135.87C203.14 136.58 202.14 136.07 202.14 134.73C202.196 133.978 202.427 133.249 202.816 132.603C203.205 131.957 203.741 131.411 204.38 131.01V131.01Z" fill="#8EAFEE"/>
<path d="M233.04 114.47L249.8 104.73C251.04 104.01 252.06 104.52 252.06 105.87C252.01 106.623 251.782 107.352 251.394 107.999C251.007 108.646 250.47 109.191 249.83 109.59L233.04 119.32C231.8 120.03 230.8 119.53 230.8 118.19C230.854 117.437 231.085 116.708 231.474 116.062C231.864 115.415 232.4 114.87 233.04 114.47Z" fill="#8EAFEE"/>
<path d="M261.72 97.93L278.48 88.2C279.72 87.48 280.73 87.99 280.74 89.33C280.69 90.0839 280.462 90.8152 280.074 91.4637C279.687 92.1122 279.151 92.6593 278.51 93.06L261.72 102.77C260.48 103.49 259.47 102.98 259.47 101.64C259.529 100.889 259.763 100.162 260.154 99.5175C260.545 98.8732 261.081 98.3294 261.72 97.93V97.93Z" fill="#8EAFEE"/>
<path d="M290.36 81.3699L307.12 71.6399C308.36 70.9199 309.37 71.4299 309.38 72.7799C309.33 73.5335 309.101 74.2644 308.711 74.9115C308.321 75.5585 307.783 76.1031 307.14 76.4999L290.36 86.2299C289.12 86.9399 288.11 86.4399 288.11 85.0999C288.167 84.3453 288.4 83.6147 288.791 82.9668C289.181 82.3189 289.719 81.7719 290.36 81.3699V81.3699Z" fill="#8EAFEE"/>
<path d="M319.02 64.83L335.78 55.09C337.02 54.38 338.03 54.89 338.04 56.23C337.982 56.979 337.749 57.704 337.36 58.3466C336.971 58.9893 336.437 59.5316 335.8 59.93L319.02 69.65C317.78 70.37 316.77 69.86 316.77 68.52C316.832 67.7723 317.068 67.0493 317.458 66.4087C317.849 65.7681 318.384 65.2275 319.02 64.83Z" fill="#8EAFEE"/>
<path d="M340.08 77.8299L339.85 217.38L145.04 329.99V190.44L340.04 77.8299M342.04 74.3599L143.04 189.28V333.46L341.85 218.54L342.09 74.3599H342.04Z" fill="#E0E0E0"/>
<path d="M171.45 316.08L171.48 173.82" stroke="#E0E0E0" stroke-width="2" stroke-linecap="round" stroke-linejoin="round"/>
<path d="M199.91 157.41L199.85 299.66" stroke="#E0E0E0" stroke-width="2" stroke-linecap="round" stroke-linejoin="round"/>
<path d="M228.35 140.99L228.25 283.24" stroke="#E0E0E0" stroke-width="2" stroke-linecap="round" stroke-linejoin="round"/>
<path d="M256.78 124.57L256.65 266.83" stroke="#E0E0E0" stroke-width="2" stroke-linecap="round" stroke-linejoin="round"/>
<path d="M285.22 108.15L285.05 250.41" stroke="#E0E0E0" stroke-width="2" stroke-linecap="round" stroke-linejoin="round"/>
<path d="M313.66 91.74L313.45 233.99" stroke="#E0E0E0" stroke-width="2" stroke-linecap="round" stroke-linejoin="round"/>
<path d="M144.21 224.62L341.08 110.96" stroke="#E0E0E0" stroke-width="2" stroke-linecap="round" stroke-linejoin="round"/>
<path d="M144.21 260.67L341.08 147" stroke="#E0E0E0" stroke-width="2" stroke-linecap="round" stroke-linejoin="round"/>
<path d="M144.21 296.71L341.08 183.05" stroke="#E0E0E0" stroke-width="2" stroke-linecap="round" stroke-linejoin="round"/>
<path opacity="0.1" d="M287.68 110.29V145.9L317.18 128.87V93.27L287.68 110.29Z" fill="black"/>
<path d="M324.55 126.93C324.55 126.93 323.11 129.37 317.96 132.34L291.96 147.34L288.84 116.4L318.33 99.3999L319.98 117.31C320.28 120.15 320.72 124.4 324.55 126.93Z" fill="#FFF971"/>
<path d="M318.36 99.3201L288.87 116.35V110.88L318.36 93.8501V99.3201Z" fill="#FFF971"/>
<path opacity="0.1" d="M318.36 99.3201L288.87 116.35V110.88L318.36 93.8501V99.3201Z" fill="black"/>
<path d="M315.43 114.5C315.254 113.67 315.027 112.852 314.75 112.05C314.75 111.96 314.69 111.87 314.65 111.78C314.852 111.349 314.921 110.866 314.846 110.396C314.771 109.925 314.556 109.487 314.23 109.14C314.11 109.03 313.81 108.91 313.72 109.14C313.517 109.915 313.58 110.736 313.9 111.47C313.663 112.01 313.375 112.525 313.04 113.01C312.737 113.472 312.403 113.913 312.04 114.33C311.58 114.82 310.88 115.53 310.16 115.55C309.956 115.556 309.757 115.491 309.595 115.368C309.433 115.244 309.318 115.068 309.27 114.87C309.49 114.55 309.71 114.23 309.9 113.87C310.376 113.152 310.715 112.352 310.9 111.51C310.934 111.356 310.927 111.196 310.88 111.045C310.834 110.895 310.749 110.759 310.634 110.651C310.519 110.543 310.378 110.467 310.225 110.43C310.072 110.393 309.911 110.397 309.76 110.44C308.95 110.63 308.67 111.71 308.51 112.44C308.34 113.15 308.34 113.89 308.51 114.6C308.327 114.887 308.119 115.158 307.89 115.41C307.795 115.493 307.695 115.57 307.59 115.64C307.599 115.554 307.599 115.466 307.59 115.38C307.59 115.14 307.23 114.77 306.98 114.96C306.34 115.47 306.21 116.29 305.81 116.96C305.719 117.123 305.601 117.268 305.46 117.39C305.29 117.54 305.27 117.56 305.19 117.39C305.095 117.043 304.961 116.707 304.79 116.39C304.67 116.19 304.26 116 304.1 116.26C303.859 116.655 303.677 117.083 303.56 117.53C303.466 117.427 303.352 117.345 303.225 117.288C303.097 117.232 302.959 117.203 302.82 117.203C302.681 117.203 302.543 117.232 302.415 117.288C302.288 117.345 302.174 117.427 302.08 117.53C301.561 118.092 301.12 118.721 300.77 119.4C300.666 119.586 300.553 119.766 300.43 119.94L300.32 120.09C300.311 120.047 300.311 120.003 300.32 119.96C300.28 119.404 300.28 118.846 300.32 118.29V118.29C300.32 118.29 300.32 118.22 300.32 118.19C300.32 117.79 299.45 117.57 299.45 118.03C299.445 118.097 299.445 118.163 299.45 118.23C299.362 118.967 299.11 119.675 298.714 120.303C298.318 120.931 297.787 121.463 297.16 121.86C296.79 122.13 295.87 122.8 295.38 122.55C294.89 122.3 295.02 121.55 295.04 121.19C295.119 119.968 295.46 118.778 296.04 117.7C296.309 117.169 296.708 116.715 297.2 116.38C297.354 116.277 297.528 116.207 297.71 116.172C297.892 116.138 298.079 116.14 298.26 116.18C298.73 116.35 298.68 116.89 298.56 117.28C298.51 117.44 298.76 117.8 298.89 117.56C299.61 116.24 298.41 115.05 297.03 115.56C295.65 116.07 295.03 117.42 294.66 118.63C294.29 119.84 293.8 121.32 294.33 122.48C294.96 123.88 296.59 123.31 297.57 122.65C298.431 122.079 299.155 121.324 299.69 120.44C299.741 120.52 299.802 120.594 299.87 120.66C300.51 121.31 301.1 120.71 301.45 120.11C301.805 119.393 302.245 118.722 302.76 118.11C302.83 118.04 302.92 117.99 302.98 117.92C303.027 118.086 303.054 118.257 303.06 118.43C303.06 118.81 303.06 119.19 303.11 119.56C303.16 119.93 303.81 120.21 303.93 119.78C304.085 118.964 304.282 118.156 304.52 117.36C304.78 117.91 305.12 118.42 305.81 118.13C306.5 117.84 306.72 116.77 307.14 116.06C307.182 116.149 307.244 116.228 307.32 116.29C307.397 116.352 307.487 116.396 307.583 116.419C307.678 116.443 307.778 116.444 307.875 116.423C307.971 116.402 308.062 116.36 308.14 116.3C308.439 116.121 308.698 115.883 308.9 115.6L308.98 115.48C309.167 115.781 309.441 116.019 309.766 116.16C310.092 116.301 310.452 116.339 310.8 116.27C311.789 115.948 312.643 115.308 313.23 114.45C313.701 113.894 314.113 113.291 314.46 112.65C314.46 112.65 314.46 112.72 314.46 112.76C314.72 113.659 314.897 114.579 314.99 115.51C314.99 115.75 314.99 116 314.99 116.26C314.472 116.088 313.911 116.087 313.393 116.258C312.874 116.429 312.424 116.763 312.11 117.21C311.5 117.96 311.3 119.44 312.39 119.89C313.3 120.27 314.34 119.49 314.93 118.89C315.9 117.71 315.72 115.93 315.43 114.5ZM309.27 112.44C309.344 112.134 309.455 111.839 309.6 111.56C309.649 111.45 309.72 111.351 309.81 111.27C309.88 111.21 310.14 111.11 310.12 111.1C310.1 111.09 310.02 111.55 309.98 111.67C309.94 111.79 309.82 112.09 309.74 112.3C309.555 112.731 309.341 113.148 309.1 113.55C309.123 113.176 309.18 112.804 309.27 112.44V112.44ZM313.27 118.97C312.83 119.21 312.38 119.4 312.33 118.76C312.25 117.7 313.76 116.41 314.79 116.93C314.745 117.309 314.612 117.672 314.4 117.99C314.102 118.376 313.727 118.696 313.3 118.93L313.27 118.97Z" fill="#455A64"/>
<path d="M297.4 127.25C297.082 128.178 296.681 129.075 296.2 129.93C295.77 130.56 295.02 131.06 294.92 131.86C294.92 131.97 295.05 132.25 295.19 132.12C295.898 131.544 296.521 130.87 297.04 130.12V130.03C296.89 130.93 296.71 131.82 296.62 132.72C296.53 133.62 296.4 134.57 296.29 135.49C296.18 136.41 296.17 137.33 296 138.21C295.9 138.66 296.72 138.97 296.86 138.48C296.934 138.037 296.977 137.589 296.99 137.14C297.04 136.65 297.1 136.14 297.16 135.65C297.28 134.73 297.39 133.81 297.49 132.88C297.813 131.09 298.037 129.284 298.16 127.47C298.2 127.08 297.57 126.86 297.4 127.25Z" fill="#455A64"/>
<path d="M304.02 127.27C303.837 126.964 303.584 126.707 303.28 126.52C302.99 126.36 302.48 126.17 302.17 126.37C302.142 126.337 302.108 126.31 302.07 126.29C301.07 126.03 300.44 126.88 300 127.62C299.598 128.365 299.263 129.145 299 129.95C298.48 131.33 298 133.69 299.47 134.69C300.78 135.58 302.3 134.79 303.12 133.69C303.979 132.447 304.455 130.98 304.49 129.47C304.539 128.707 304.377 127.946 304.02 127.27V127.27ZM302.54 132.72C302.09 133.52 301.19 134.55 300.15 134.2C299.55 134 299.42 133.26 299.4 132.71C299.383 131.992 299.498 131.277 299.74 130.6C299.981 129.872 300.268 129.161 300.6 128.47C300.88 127.88 301.37 126.86 302.13 126.79C302.152 126.818 302.179 126.842 302.21 126.86C302.448 126.94 302.679 127.04 302.9 127.16C303.029 127.267 303.135 127.4 303.21 127.55C303.428 128.03 303.531 128.554 303.51 129.08C303.502 130.356 303.169 131.609 302.54 132.72V132.72Z" fill="#455A64"/>
<path d="M319.39 127.07C319.02 126.27 318.82 125.39 318.53 124.56C318.346 123.77 317.94 123.048 317.36 122.48C317.19 122.35 316.85 122.24 316.72 122.48C316.212 123.37 315.873 124.347 315.72 125.36C315.58 125.166 315.423 124.986 315.25 124.82C315.166 124.753 315.062 124.716 314.955 124.716C314.848 124.716 314.744 124.753 314.66 124.82C314.499 124.965 314.37 125.142 314.28 125.34C314.098 124.9 313.813 124.509 313.45 124.2C313.367 124.131 313.263 124.093 313.155 124.093C313.047 124.093 312.943 124.131 312.86 124.2C311.86 125.2 312.12 127.04 311.86 128.3C311.837 128.574 311.74 128.837 311.58 129.06C311.37 129.24 311.3 129.06 311.18 128.85C310.919 128.397 310.749 127.898 310.68 127.38C310.68 127.22 310.68 127.06 310.68 126.9C310.68 126.9 310.68 126.83 310.68 126.8C310.68 126.4 309.78 126.25 309.79 126.72C309.907 127.767 309.671 128.823 309.12 129.72C308.85 130.13 307.76 131.72 307.29 130.72C306.95 130.05 307.47 129.11 307.83 128.55C308.228 127.855 308.818 127.289 309.53 126.92V126.92C309.72 126.81 309.53 126.45 309.33 126.46C308.27 126.51 307.33 127.65 306.87 128.46C306.41 129.27 305.99 130.57 306.87 131.37C307.87 132.37 309.04 131.37 309.69 130.53C310.037 130.074 310.319 129.573 310.53 129.04V129.11C310.89 129.68 311.66 130.18 312.27 129.61C312.88 129.04 312.84 128.04 312.91 127.34C312.91 126.562 313.049 125.79 313.32 125.06C313.697 125.727 313.929 126.467 314 127.23C314.05 127.59 314.76 127.84 314.83 127.38C314.835 126.808 314.933 126.241 315.12 125.7C315.372 126.055 315.596 126.43 315.79 126.82C315.95 127.1 316.65 127.3 316.59 126.82C316.48 125.641 316.716 124.456 317.27 123.41C317.566 123.917 317.791 124.462 317.94 125.03C318.143 125.759 318.394 126.474 318.69 127.17C318.83 127.48 319.61 127.53 319.39 127.07Z" fill="#455A64"/>
<path d="M284.5 112.43C284.574 111.225 284.93 110.054 285.539 109.011C286.149 107.969 286.995 107.085 288.01 106.43C288.372 106.163 288.802 106.002 289.25 105.965C289.699 105.928 290.149 106.016 290.55 106.22L292.14 107.16L291.5 108.3C291.5 108.3 291.5 108.38 291.5 108.42C291.432 109.633 291.078 110.814 290.468 111.865C289.859 112.916 289.009 113.808 287.99 114.47V114.47L287.26 115.75L285.53 114.75H285.47C285.114 114.487 284.835 114.132 284.665 113.724C284.494 113.315 284.437 112.868 284.5 112.43V112.43Z" fill="#37474F"/>
<path d="M293.24 109.4C293.172 110.614 292.819 111.794 292.209 112.845C291.6 113.897 290.75 114.789 289.73 115.45C287.79 116.57 286.22 115.68 286.22 113.45C286.294 112.245 286.651 111.074 287.26 110.032C287.87 108.99 288.716 108.106 289.73 107.45C291.66 106.29 293.24 107.18 293.24 109.4Z" fill="#455A64"/>
<path opacity="0.1" d="M204.26 232.15V267.75L233.75 250.72V215.12L204.26 232.15Z" fill="black"/>
<path d="M241.12 248.74C241.12 248.74 239.68 251.18 234.54 254.15L208.54 269.15L205.42 238.15L234.92 221.15L236.57 239.06C236.85 242 237.27 246.26 241.12 248.74Z" fill="#8EEEA9"/>
<path d="M234.94 221.17L205.45 238.2L205.44 232.73L234.94 215.71V221.17Z" fill="#8EEEA9"/>
<path opacity="0.1" d="M234.94 221.17L205.45 238.2L205.44 232.73L234.94 215.71V221.17Z" fill="black"/>
<path d="M231.35 240.7L231.63 240.64C232.05 240.58 231.74 239.98 231.41 240H231.12C231.03 239.79 230.95 239.57 230.86 239.35C230.211 237.522 229.235 235.828 227.98 234.35C227.79 234.15 227.33 234.09 227.32 234.46C227.235 235.817 226.99 237.16 226.59 238.46V238.46C226.539 238.029 226.435 237.605 226.28 237.2C226.17 236.9 225.56 236.64 225.52 237.13C225.471 237.598 225.558 238.07 225.77 238.49C225.883 240.436 225.701 242.388 225.23 244.28C224.99 245.06 224.55 246.18 223.54 245.8C223.6 245.55 223.64 245.31 223.68 245.1C224.1 243.04 224.85 239.55 222.25 238.6C222.189 238.572 222.121 238.567 222.057 238.585C221.992 238.604 221.937 238.644 221.9 238.7C221.429 239.876 221.25 241.149 221.38 242.41C221.313 243.746 221.777 245.054 222.67 246.05C222.579 246.405 222.376 246.721 222.09 246.95C221.31 247.49 220.29 246.2 219.9 245.68C219.78 245.52 219.46 245.31 219.26 245.5C218.41 246.27 218.36 247.56 218.42 248.76C218.358 248.7 218.279 248.658 218.194 248.641C218.11 248.623 218.021 248.63 217.94 248.66C217.627 248.803 217.365 249.037 217.187 249.331C217.009 249.626 216.923 249.966 216.94 250.31C216.48 249.5 215.87 248.95 214.99 249.53C214.517 249.826 214.163 250.279 213.99 250.81C213.905 249.861 213.519 248.965 212.89 248.25C212.591 247.968 212.196 247.811 211.785 247.811C211.374 247.811 210.979 247.968 210.68 248.25C210.088 249.012 209.777 249.955 209.8 250.92C209.766 251.424 209.813 251.931 209.94 252.42C209.99 252.58 210.05 252.83 210.25 252.86C210.45 252.89 210.52 252.71 210.46 252.53C210.17 251.62 210.63 247.92 212.2 248.53C213.04 248.87 213.15 250.58 213.27 251.33C213.5 252.76 213.82 254.18 214.06 255.6C214.14 256.04 214.92 256.23 214.93 255.68C214.93 254.07 214.16 252.01 215.15 250.56C215.27 250.38 215.58 249.97 215.83 250.06C216.08 250.15 216.21 250.57 216.31 250.77C216.6 251.38 216.76 252.05 217.07 252.65C217.24 252.98 217.9 253.17 217.9 252.65C217.9 251.83 217.4 250.27 218.04 249.56C218.19 249.82 218.33 250.08 218.46 250.35C218.59 250.62 219.3 250.88 219.28 250.35C219.28 249.2 218.89 247.44 219.56 246.35C220.2 247.06 221.07 247.85 222.02 247.72C222.72 247.62 223.07 247.05 223.29 246.41C223.69 246.596 224.146 246.624 224.566 246.486C224.986 246.349 225.338 246.057 225.55 245.67C226.202 244.38 226.545 242.955 226.55 241.51C226.619 240.725 226.643 239.937 226.62 239.15C226.753 239.166 226.887 239.166 227.02 239.15C227.081 239.15 227.14 239.131 227.188 239.095C227.237 239.059 227.273 239.008 227.29 238.95C227.666 237.783 227.921 236.579 228.05 235.36C228.876 236.525 229.549 237.792 230.05 239.13C230.17 239.43 230.29 239.73 230.4 240.04C229.83 240.204 229.321 240.535 228.938 240.988C228.555 241.442 228.316 242 228.25 242.59C228.27 243.193 228.461 243.779 228.801 244.278C229.141 244.777 229.616 245.17 230.17 245.41C231.47 245.88 232 244.47 231.96 243.41C231.877 242.484 231.672 241.572 231.35 240.7V240.7ZM222.02 242.93C221.842 241.753 221.959 240.55 222.36 239.43C223.82 240.33 223.18 243.1 222.93 244.43C222.88 244.68 222.84 244.99 222.79 245.31C222.336 244.595 222.071 243.776 222.02 242.93V242.93ZM230.63 244.93C230.1 245.07 229.63 244.34 229.36 243.93C228.62 242.66 229.52 241.47 230.69 240.93C230.952 241.69 231.123 242.479 231.2 243.28C231.23 243.78 231.24 244.77 230.63 244.93V244.93Z" fill="#455A64"/>
<path d="M232.56 233.46C232.212 232.455 231.781 231.482 231.27 230.55C231.01 230.05 230.74 229.55 230.5 229.05C230.26 228.55 230.08 228.11 229.84 227.67C229.7 227.42 229.09 227.24 229.11 227.67C229.165 228.199 229.297 228.718 229.5 229.21C229.7 229.72 229.92 230.21 230.14 230.73C230.587 231.657 230.981 232.608 231.32 233.58C231.47 234.07 231.52 234.79 232.2 234.74C232.88 234.69 232.72 233.93 232.56 233.46Z" fill="#455A64"/>
<path d="M234.43 237.82C234.417 237.723 234.39 237.629 234.35 237.54C234.336 237.503 234.316 237.469 234.29 237.44V237.44C234.27 237.371 234.236 237.306 234.189 237.251C234.143 237.196 234.085 237.151 234.02 237.12L233.81 236.97L233.67 236.89C233.618 236.868 233.562 236.856 233.505 236.856C233.448 236.856 233.392 236.868 233.34 236.89C233.301 236.904 233.266 236.928 233.24 236.96C233.208 237.007 233.191 237.063 233.19 237.12C233.18 237.176 233.18 237.234 233.19 237.29C233.156 237.355 233.126 237.421 233.1 237.49C233.1 237.57 233.1 237.65 233.1 237.73C233.085 237.799 233.085 237.871 233.1 237.94C233.12 238.025 233.157 238.105 233.209 238.175C233.26 238.245 233.325 238.305 233.4 238.35C233.575 238.45 233.769 238.511 233.97 238.53C234.087 238.555 234.209 238.533 234.31 238.47L234.39 238.4C234.439 238.345 234.467 238.274 234.47 238.2C234.483 238.072 234.47 237.942 234.43 237.82V237.82Z" fill="#455A64"/>
<path d="M201.08 234.29C201.148 233.076 201.501 231.896 202.111 230.845C202.72 229.793 203.57 228.901 204.59 228.24C204.952 227.973 205.382 227.812 205.831 227.777C206.28 227.741 206.73 227.833 207.13 228.04V228.04L208.73 228.99L208.08 230.12C208.08 230.12 208.08 230.2 208.08 230.24C208.017 231.453 207.667 232.634 207.058 233.686C206.45 234.738 205.6 235.63 204.58 236.29V236.29L203.86 237.57L202.12 236.57H202.06C201.708 236.311 201.432 235.964 201.26 235.563C201.088 235.162 201.026 234.723 201.08 234.29Z" fill="#37474F"/>
<path d="M209.81 231.26C209.736 232.465 209.379 233.636 208.77 234.678C208.16 235.72 207.314 236.604 206.3 237.26C204.37 238.38 202.79 237.49 202.79 235.26C202.859 234.047 203.213 232.867 203.823 231.816C204.432 230.765 205.281 229.872 206.3 229.21C208.24 228.14 209.81 229.03 209.81 231.26Z" fill="#455A64"/>
<path d="M270.48 199.33L323.93 168.46C327.49 166.41 330.38 167.77 330.38 171.46C330.38 175.15 327.49 179.89 323.93 181.94L270.48 212.8C266.92 214.86 264.03 213.5 264.03 209.8C264.03 206.1 266.92 201.38 270.48 199.33Z" fill="#8EAFEE"/>
<path d="M177.46 285.66L194.49 295.49" stroke="#F28F8F" stroke-width="4" stroke-miterlimit="10" stroke-linecap="round"/>
<path d="M193.27 276.76L178.2 304.02" stroke="#F28F8F" stroke-width="4" stroke-miterlimit="10" stroke-linecap="round"/>
<path d="M284.51 235.37C284.46 233.981 283.885 232.662 282.9 231.68C281.809 230.723 280.452 230.123 279.01 229.96C276.845 229.723 274.657 230.069 272.67 230.96C270.96 231.751 269.395 232.822 268.04 234.13C267.42 234.69 266.8 235.25 266.14 235.76C265.79 236.03 266.3 236.58 266.64 236.38C268.14 235.5 269.46 234.38 270.92 233.45C272.517 232.414 274.317 231.732 276.2 231.45C278.75 231.08 282.12 231.79 282.83 234.65C283.069 236.09 283.011 237.563 282.66 238.98C282.385 240.439 281.935 241.859 281.32 243.21C280.073 245.909 278.247 248.299 275.97 250.21C274.03 252.032 271.67 253.347 269.1 254.04C266.908 254.548 264.611 254.334 262.55 253.43C261.64 253.005 260.867 252.333 260.32 251.49C259.723 250.409 259.436 249.184 259.49 247.95C259.475 244.944 260.218 241.983 261.65 239.34C264.56 233.892 269.422 229.745 275.26 227.73C276.05 227.47 276.87 227.24 277.68 227.03C277.783 226.977 277.865 226.893 277.916 226.789C277.966 226.685 277.981 226.568 277.958 226.454C277.935 226.341 277.876 226.239 277.79 226.162C277.704 226.085 277.595 226.039 277.48 226.03C274.055 226.484 270.806 227.817 268.05 229.9C265.176 231.956 262.747 234.571 260.91 237.59C259.143 240.425 258.111 243.656 257.91 246.99C257.78 249.78 258.29 252.58 260.73 254.26C262.904 255.612 265.486 256.154 268.02 255.79C270.825 255.366 273.464 254.195 275.66 252.4C278.337 250.419 280.549 247.876 282.14 244.95C283.775 242.027 284.594 238.718 284.51 235.37V235.37Z" fill="#F28F8F"/>
<path d="M158.21 188.93L160.27 193.3C160.286 193.341 160.311 193.379 160.342 193.41C160.374 193.441 160.411 193.466 160.453 193.482C160.494 193.498 160.538 193.505 160.583 193.503C160.627 193.501 160.67 193.49 160.71 193.47L165.31 191.71C165.79 191.53 165.98 192.2 165.63 192.85L162.31 199.1C162.175 199.34 162.116 199.616 162.14 199.89L162.92 205.54C163.01 206.13 162.5 206.91 162.07 206.85L157.96 206.34C157.851 206.344 157.744 206.376 157.65 206.432C157.555 206.488 157.476 206.566 157.42 206.66L153.3 211.93C152.87 212.48 152.37 212.28 152.45 211.59L153.24 205.03C153.264 204.925 153.261 204.816 153.232 204.713C153.202 204.61 153.146 204.516 153.07 204.44L149.74 202.04C149.4 201.79 149.59 200.89 150.07 200.52L154.67 196.97C154.881 196.792 155.034 196.555 155.11 196.29L157.16 189.55C157.38 188.86 158 188.51 158.21 188.93Z" fill="#F28F8F"/>
<path d="M204.28 162.93L219.9 153.93C220.56 153.55 221.1 153.82 221.1 154.54C221.072 154.944 220.948 155.336 220.74 155.684C220.531 156.032 220.244 156.325 219.9 156.54L204.28 165.54C203.62 165.92 203.08 165.65 203.08 164.93C203.108 164.526 203.231 164.134 203.44 163.786C203.649 163.438 203.936 163.145 204.28 162.93V162.93Z" fill="#455A64"/>
<path d="M204.28 169.32L215.05 163.1C215.72 162.71 216.25 162.98 216.25 163.7C216.222 164.104 216.099 164.496 215.89 164.844C215.681 165.191 215.394 165.485 215.05 165.7L204.28 171.93C203.62 172.31 203.08 172.04 203.08 171.32C203.108 170.915 203.231 170.523 203.44 170.176C203.649 169.828 203.936 169.535 204.28 169.32Z" fill="#455A64"/>
<path d="M260.13 162.2L275.74 153.2C276.4 152.82 276.94 153.09 276.94 153.81C276.911 154.214 276.787 154.606 276.579 154.953C276.37 155.301 276.083 155.594 275.74 155.81L260.13 164.81C259.46 165.19 258.93 164.92 258.93 164.2C258.958 163.795 259.081 163.403 259.29 163.056C259.499 162.708 259.786 162.415 260.13 162.2V162.2Z" fill="#455A64"/>
<path d="M260.13 168.62L270.9 162.4C271.56 162.02 272.1 162.29 272.1 163.01C272.072 163.414 271.949 163.806 271.74 164.154C271.531 164.502 271.244 164.795 270.9 165.01L260.13 171.23C259.46 171.62 258.93 171.34 258.93 170.63C258.956 170.224 259.078 169.829 259.287 169.48C259.496 169.13 259.785 168.835 260.13 168.62V168.62Z" fill="#455A64"/>
<path d="M149.59 262.07L165.2 253.07C165.87 252.68 166.4 252.96 166.4 253.67C166.372 254.074 166.249 254.466 166.04 254.814C165.831 255.162 165.544 255.455 165.2 255.67L149.59 264.67C148.92 265.06 148.39 264.78 148.39 264.07C148.418 263.666 148.541 263.274 148.75 262.926C148.959 262.578 149.246 262.285 149.59 262.07V262.07Z" fill="#455A64"/>
<path d="M149.59 268.49L160.36 262.27C161.02 261.89 161.56 262.16 161.56 262.88C161.531 263.284 161.407 263.676 161.199 264.023C160.99 264.371 160.703 264.664 160.36 264.88L149.59 271.1C148.92 271.48 148.39 271.21 148.39 270.49C148.416 270.085 148.538 269.692 148.747 269.344C148.956 268.996 149.245 268.703 149.59 268.49V268.49Z" fill="#455A64"/>
<path d="M289.4 217.45L305.01 208.45C305.68 208.06 306.21 208.34 306.21 209.05C306.182 209.454 306.059 209.846 305.85 210.194C305.641 210.541 305.354 210.835 305.01 211.05L289.4 220.05C288.73 220.44 288.2 220.16 288.2 219.45C288.228 219.046 288.352 218.654 288.56 218.306C288.769 217.958 289.056 217.665 289.4 217.45Z" fill="#455A64"/>
<path d="M289.4 223.87L300.17 217.65C300.83 217.27 301.37 217.54 301.37 218.26C301.341 218.664 301.217 219.056 301.009 219.403C300.8 219.751 300.513 220.044 300.17 220.26L289.4 226.48C288.73 226.86 288.2 226.59 288.2 225.87C288.226 225.465 288.348 225.072 288.557 224.724C288.766 224.376 289.055 224.083 289.4 223.87V223.87Z" fill="#455A64"/>
<path d="M199.91 192.62L221.1 180.23L199.78 215.12L199.91 192.62Z" fill="#8EAFEE"/>
<path opacity="0.3" d="M199.91 192.62L221.1 180.23L199.78 215.12L199.91 192.62Z" fill="#FFF971"/>
<path d="M123.87 204.99L137.01 197.38C137.7 196.98 138.27 197.26 138.27 198.02C138.244 198.443 138.117 198.853 137.899 199.217C137.682 199.581 137.38 199.887 137.02 200.11L123.87 207.72C123.17 208.12 122.61 207.83 122.61 207.08C122.64 206.657 122.77 206.247 122.989 205.884C123.208 205.521 123.51 205.214 123.87 204.99V204.99Z" fill="#8EAFEE"/>
<path d="M123.87 210.78L133.56 205.17C134.25 204.77 134.82 205.05 134.83 205.81C134.8 206.233 134.67 206.643 134.451 207.006C134.232 207.369 133.93 207.676 133.57 207.9L123.87 213.5C123.17 213.91 122.61 213.62 122.61 212.87C122.64 212.447 122.77 212.037 122.989 211.674C123.208 211.311 123.51 211.004 123.87 210.78V210.78Z" fill="#8EAFEE"/>
<path d="M123.87 240.98L137.01 233.37C137.7 232.97 138.27 233.25 138.27 234.01C138.244 234.433 138.117 234.843 137.899 235.207C137.682 235.571 137.38 235.877 137.02 236.1L123.87 243.71C123.17 244.11 122.61 243.83 122.61 243.07C122.642 242.647 122.773 242.238 122.991 241.875C123.21 241.512 123.511 241.205 123.87 240.98V240.98Z" fill="#8EAFEE"/>
<path d="M123.87 246.77L133.56 241.16C134.25 240.76 134.82 241.04 134.83 241.8C134.8 242.223 134.67 242.633 134.451 242.996C134.232 243.359 133.93 243.666 133.57 243.89L123.87 249.5C123.17 249.9 122.61 249.61 122.61 248.86C122.64 248.437 122.77 248.027 122.989 247.664C123.208 247.301 123.51 246.994 123.87 246.77V246.77Z" fill="#8EAFEE"/>
<path d="M123.87 277.04L137.01 269.43C137.7 269.03 138.27 269.31 138.27 270.07C138.244 270.493 138.117 270.903 137.899 271.267C137.682 271.631 137.38 271.937 137.02 272.16L123.87 279.77C123.17 280.17 122.61 279.88 122.61 279.13C122.64 278.707 122.77 278.297 122.989 277.934C123.208 277.571 123.51 277.264 123.87 277.04V277.04Z" fill="#8EAFEE"/>
<path d="M123.87 282.83L133.56 277.22C134.25 276.82 134.82 277.1 134.83 277.86C134.8 278.283 134.67 278.693 134.451 279.056C134.232 279.419 133.93 279.726 133.57 279.95L123.87 285.55C123.17 285.95 122.61 285.67 122.61 284.92C122.64 284.497 122.77 284.087 122.989 283.724C123.208 283.361 123.51 283.054 123.87 282.83V282.83Z" fill="#8EAFEE"/>
<path d="M123.87 313.01L137.01 305.4C137.7 304.99 138.27 305.28 138.27 306.03C138.245 306.455 138.119 306.867 137.902 307.233C137.684 307.598 137.382 307.906 137.02 308.13L123.87 315.74C123.17 316.14 122.61 315.85 122.61 315.1C122.64 314.677 122.77 314.267 122.989 313.904C123.208 313.541 123.51 313.234 123.87 313.01V313.01Z" fill="#8EAFEE"/>
<path d="M123.87 318.8L133.56 313.19C134.25 312.78 134.82 313.07 134.83 313.83C134.8 314.253 134.67 314.663 134.451 315.026C134.232 315.389 133.93 315.696 133.57 315.92L123.87 321.52C123.17 321.92 122.61 321.64 122.61 320.89C122.64 320.467 122.77 320.057 122.989 319.694C123.208 319.331 123.51 319.024 123.87 318.8Z" fill="#8EAFEE"/>
<g opacity="0.4">
<path d="M123.87 210.78L133.56 205.17C134.25 204.77 134.82 205.05 134.83 205.81C134.8 206.233 134.67 206.643 134.451 207.006C134.232 207.369 133.93 207.676 133.57 207.9L123.87 213.5C123.17 213.91 122.61 213.62 122.61 212.87C122.64 212.447 122.77 212.037 122.989 211.674C123.208 211.311 123.51 211.004 123.87 210.78V210.78Z" fill="black"/>
<path d="M123.87 246.77L133.56 241.16C134.25 240.76 134.82 241.04 134.83 241.8C134.8 242.223 134.67 242.633 134.451 242.996C134.232 243.359 133.93 243.666 133.57 243.89L123.87 249.5C123.17 249.9 122.61 249.61 122.61 248.86C122.64 248.437 122.77 248.027 122.989 247.664C123.208 247.301 123.51 246.994 123.87 246.77V246.77Z" fill="black"/>
<path d="M123.87 282.83L133.56 277.22C134.25 276.82 134.82 277.1 134.83 277.86C134.8 278.283 134.67 278.693 134.451 279.056C134.232 279.419 133.93 279.726 133.57 279.95L123.87 285.55C123.17 285.95 122.61 285.67 122.61 284.92C122.64 284.497 122.77 284.087 122.989 283.724C123.208 283.361 123.51 283.054 123.87 282.83V282.83Z" fill="black"/>
<path d="M123.87 318.8L133.56 313.19C134.25 312.78 134.82 313.07 134.83 313.83C134.8 314.253 134.67 314.663 134.451 315.026C134.232 315.389 133.93 315.696 133.57 315.92L123.87 321.52C123.17 321.92 122.61 321.64 122.61 320.89C122.64 320.467 122.77 320.057 122.989 319.694C123.208 319.331 123.51 319.024 123.87 318.8Z" fill="black"/>
</g>
<path opacity="0.1" d="M351.72 185.01C348.834 186.367 346.023 187.88 343.3 189.54C325.86 200.77 312.54 226.67 313.54 247.39C313.6 248.59 313.71 249.73 313.86 250.84L351.72 228.98V185.01Z" fill="black"/>
<path d="M374.24 195.93L365.59 190.93H365.52C360.01 188.08 352.72 188.93 344.88 193.93C329.13 204.08 317.1 227.47 318.01 246.18C318.46 255.51 322.01 261.91 327.48 264.73L336.13 269.73H336.19C341.64 272.5 348.93 271.73 356.78 266.64C372.53 256.5 384.56 233.1 383.65 214.39C383.26 205.15 379.72 198.75 374.24 195.93Z" fill="#37474F"/>
<path d="M335.79 269.58L327.53 264.77H327.48C322.05 261.94 318.48 255.54 318.02 246.23C317.61 237.88 319.79 228.61 323.71 220L332.36 225C328.44 233.61 326.27 242.88 326.68 251.22C327.11 260.34 330.55 266.66 335.79 269.58Z" fill="#263238"/>
<path d="M356.84 266.73C372.59 256.59 384.62 233.19 383.71 214.48C382.8 195.77 369.29 188.82 353.54 198.93C337.79 209.04 325.72 232.5 326.72 251.21C327.72 269.92 341.08 276.87 356.84 266.73Z" fill="#455A64"/>
<path d="M343.64 265.42C334.35 265.88 332.84 255.42 332.64 250.92C331.84 234.42 342.9 212.92 356.79 203.92C359.752 201.852 363.195 200.578 366.79 200.22C376.08 199.77 377.59 210.22 377.79 214.72C378.59 231.22 367.53 252.72 353.64 261.72C350.681 263.793 347.236 265.067 343.64 265.42V265.42Z" fill="#FAFAFA"/>
<path d="M357.01 235.93C356.914 235.941 356.816 235.941 356.72 235.93C356.513 235.86 356.334 235.725 356.212 235.544C356.089 235.364 356.029 235.148 356.04 234.93V211.05C356.04 210.785 356.145 210.53 356.333 210.343C356.52 210.155 356.775 210.05 357.04 210.05C357.305 210.05 357.56 210.155 357.747 210.343C357.935 210.53 358.04 210.785 358.04 211.05V231.99L369.18 217.68C369.261 217.574 369.363 217.486 369.478 217.42C369.594 217.354 369.722 217.312 369.854 217.296C369.986 217.28 370.121 217.291 370.249 217.328C370.377 217.365 370.496 217.427 370.6 217.51C370.702 217.595 370.786 217.699 370.847 217.817C370.909 217.934 370.946 218.063 370.957 218.195C370.968 218.327 370.953 218.46 370.912 218.586C370.872 218.713 370.806 218.829 370.72 218.93L357.78 235.56C357.687 235.675 357.57 235.767 357.436 235.831C357.303 235.895 357.158 235.929 357.01 235.93Z" fill="#37474F"/>
<path d="M351.31 253.58H351.17C351.062 253.547 350.971 253.474 350.916 253.374C350.862 253.275 350.849 253.159 350.88 253.05L356.48 234.16C356.515 234.053 356.589 233.965 356.688 233.912C356.787 233.86 356.903 233.848 357.01 233.88C357.064 233.895 357.115 233.92 357.159 233.955C357.204 233.99 357.24 234.034 357.267 234.083C357.295 234.133 357.311 234.187 357.317 234.243C357.323 234.299 357.317 234.356 357.3 234.41L351.72 253.27C351.691 253.357 351.637 253.434 351.564 253.489C351.49 253.545 351.402 253.576 351.31 253.58Z" fill="#F28F8F"/>
<path d="M356.72 230.15C358.57 228.96 360.16 229.78 360.27 231.98C360.262 233.181 359.972 234.364 359.423 235.432C358.874 236.5 358.082 237.424 357.11 238.13C355.26 239.32 353.67 238.5 353.56 236.3C353.568 235.099 353.858 233.917 354.407 232.848C354.956 231.78 355.748 230.856 356.72 230.15Z" fill="#37474F"/>
<path d="M144.4 391.98C138.47 394.98 153.4 405.55 160.85 401.48L290.64 325.48L306.22 309.04C306.445 308.899 306.606 308.675 306.666 308.416C306.726 308.157 306.681 307.885 306.54 307.66C306.399 307.435 306.175 307.274 305.916 307.214C305.657 307.154 305.385 307.199 305.16 307.34L275.11 316.51L144.4 391.98Z" fill="#E0E0E0"/>
<path d="M276.3 304.93L303.95 299.51C304.124 299.484 304.302 299.513 304.46 299.592C304.618 299.67 304.747 299.796 304.831 299.951C304.915 300.106 304.95 300.283 304.93 300.458C304.91 300.633 304.837 300.798 304.72 300.93L285.96 322.17L276.3 304.93Z" fill="#FFA8A7"/>
<path d="M304.72 300.93C304.838 300.795 304.91 300.627 304.928 300.449C304.945 300.271 304.907 300.091 304.818 299.936C304.729 299.781 304.593 299.658 304.43 299.583C304.268 299.508 304.086 299.486 303.91 299.52L298.51 300.58C299.252 301.038 299.853 301.692 300.247 302.471C300.64 303.249 300.811 304.121 300.74 304.99V305.48L304.72 300.93Z" fill="#263238"/>
<path d="M182.89 381.31L185.16 380.01L187.89 378.46L286 322.19C286.911 319.146 286.636 315.87 285.23 313.02C283.23 308.63 279.46 305.16 276.31 304.96L178.31 361.2L173.09 364.2C176.53 362.44 186.37 379.51 182.89 381.31Z" fill="#EEE48E"/>
<path d="M191.52 376.4L196.52 373.49C198.01 372.7 197.16 369.04 195.41 365.25C193.11 360.25 188.57 355.35 186.59 356.39L182.87 358.53L181.55 359.32C183.55 358.27 188.07 363.14 190.37 368.18C192.04 371.81 192.89 375.34 191.62 376.3C191.594 376.34 191.56 376.374 191.52 376.4V376.4Z" fill="#EBEBEB"/>
<path d="M192.78 375.66C196.24 373.83 186.32 356.74 182.85 358.58L177.79 361.47C181.26 359.63 191.18 376.72 187.71 378.56L192.78 375.66Z" fill="#EEE48E"/>
<path d="M182.89 381.31L187.89 378.46C191.31 376.68 181.89 360.11 178.26 361.2C178.187 361.218 178.116 361.245 178.05 361.28L173.05 364.19C176.53 362.44 186.37 379.51 182.89 381.31Z" fill="#EBEBEB"/>
<path opacity="0.15" d="M304.88 300.01L303.95 299.53L283.89 310.53L180.14 370.03C179.95 369.72 179.79 369.7 179.66 369.92C182.61 374.51 184.84 380.3 182.89 381.31L185.16 380.01L187.89 378.46L286 322.19L304.72 300.93C304.836 300.81 304.913 300.659 304.942 300.495C304.97 300.331 304.949 300.162 304.88 300.01V300.01Z" fill="black"/>
<path d="M161.72 393.44L182.91 381.31C184.4 380.54 183.58 376.92 181.91 373.15C179.62 368.1 175.1 363.15 173.11 364.15L151.72 376.38C147.5 378.81 151.38 387.99 156.09 392.08C157.88 393.63 159.84 394.31 161.72 393.44Z" fill="#F28F8F"/>
<path opacity="0.1" d="M162.96 386.87C161.75 382.09 157.88 377.41 154.32 376.4C153.796 376.212 153.234 376.153 152.682 376.228C152.131 376.303 151.605 376.509 151.15 376.83C147.96 379.83 151.67 388.21 156.15 392.08C157.86 393.6 159.78 394.28 161.61 393.48C163.18 392.55 163.79 390.11 162.96 386.87Z" fill="black"/>
<path d="M440.72 296.6C441.38 296.86 441.52 298.14 441.56 300.66C441.56 302.57 441.93 305.91 439.68 306.53C437.43 307.15 434.16 306.73 432.77 304.9C431.03 302.61 429.87 300.61 427.38 297.81C425.22 295.38 422.87 293.11 422.05 289.76C421.31 286.76 422.05 285.44 424.05 284.61C426.9 283.47 431.25 287.5 433.45 288.17C435.36 288.75 440.03 296.33 440.72 296.6Z" fill="#263238"/>
<path d="M440.72 294.26L440.65 297.36C439.468 298.073 438.115 298.449 436.735 298.449C435.355 298.449 434.002 298.073 432.82 297.36C432.69 297.06 432.11 292.91 432.11 292.91L440.72 294.26Z" fill="#FFA8A7"/>
<path d="M415.21 313.93C415.21 313.93 416.03 316.64 416.46 319.01C416.8 320.89 417.27 324.01 416.59 325.42C415.91 326.83 413.32 327.67 409.36 327.55C406.79 327.47 402.75 329.12 399.97 330.55C397.19 331.98 391.21 332.55 388.22 332.14C384.7 331.65 381.1 329.52 380.56 328.05C380.02 326.58 380.81 325.05 389.21 321.72C389.28 321.72 400.85 318.22 404.97 313.87L415.21 313.93Z" fill="#263238"/>
<path d="M415.28 310.53C415.28 310.53 415.22 312.83 415.2 314.14C415.18 315.45 413.59 317.38 409.58 317.14C406.76 316.98 404.81 316.14 404.97 313.86L405.05 310.51L415.28 310.53Z" fill="#FFA8A7"/>
<path d="M443.72 253.21C443.157 247.712 442.055 242.282 440.43 237C440.43 237 441.85 223.11 442.67 209.93C443.57 195.69 444.4 188.36 441.6 167.79C441.6 167.79 397.94 163.87 396.75 180.33C395.56 196.79 397.25 238.78 397.63 246.03C398.01 253.28 399.12 259.7 400.35 271.47C401.56 283.08 405.09 310.47 405.09 310.47C406.664 311.311 408.421 311.751 410.205 311.751C411.989 311.751 413.746 311.311 415.32 310.47C415.32 310.47 419.32 277.6 419.15 269.24C419.026 263.049 418.099 256.901 416.39 250.95C416.39 250.95 417.57 237.38 418.61 225.58C419.65 213.78 420.61 208.13 420.88 202.99L421.88 202.53C421.88 202.53 422.43 222.93 422.81 230.18C423.19 237.43 424.19 244.4 425.98 257.89C427.53 269.59 432.38 294.38 432.38 294.38C437.57 297.38 440.78 294.2 440.78 294.2C440.78 294.2 444.87 263.36 443.72 253.21Z" fill="#455A64"/>
<path d="M420.84 203.05C420.84 203.05 432.12 197.81 437.84 192.98C437.84 192.98 432.5 200.16 425.62 203.25C425.62 203.25 422.62 228.52 422.62 228.01L421.78 203.01L420.84 203.05Z" fill="#37474F"/>
<path d="M413.02 109.13L414.72 124.21L428.96 123.49L427.38 105.9L413.02 109.13Z" fill="#FFA8A7"/>
<path d="M434.32 114.93C439.62 114.68 442.32 115.48 444.69 120.05C447.06 124.62 448.01 138.28 448.83 145.32C449.65 152.36 449.83 157.32 446.97 158.05C444.11 158.78 432.79 159.05 432.79 159.05L434.32 114.93Z" fill="#816EAB"/>
<path d="M443.27 122.72C442.5 118.5 436.95 114.07 431.76 114.91L428.24 115.51C427.61 118.04 420.67 119.63 414.03 118.07C412.03 118.59 405.44 119.83 403.78 120.38C399 121.96 397.04 126.66 396.29 142.22C396.29 142.22 396.67 177.45 396.49 184.47C408.27 189.47 420.63 189.57 427.49 188.24C441.78 185.45 443.63 179.59 443.63 179.59L441.5 163.47C441.5 163.47 445 132.26 443.27 122.72Z" fill="#8EAFEE"/>
<path d="M443.27 122.72C442.5 118.5 436.95 114.07 431.76 114.91L428.24 115.51C427.61 118.04 420.67 119.63 414.03 118.07C412.03 118.59 405.44 119.83 403.78 120.38C399 121.96 397.04 126.66 396.29 142.22C396.29 142.22 396.67 177.45 396.49 184.47C408.27 189.47 420.63 189.57 427.49 188.24C441.78 185.45 443.63 179.59 443.63 179.59L441.5 163.47C441.5 163.47 445 132.26 443.27 122.72Z" fill="#816EAB"/>
<path d="M413.58 114.11L413.69 115.06C416.572 115.665 419.548 115.665 422.43 115.06C427.05 114.06 427.99 112.72 427.99 112.72L427.89 111.64C427.89 111.64 429.04 111.22 429.65 112.99C429.911 113.698 430.135 114.419 430.32 115.15C430.32 115.15 430.85 118.39 425.41 120.04C423.175 120.75 420.815 120.986 418.484 120.731C416.152 120.476 413.899 119.737 411.87 118.56L409.74 119.01C409.74 119.01 411.58 114.76 412.14 113.9C412.27 113.662 412.465 113.467 412.703 113.336C412.94 113.205 413.209 113.144 413.48 113.16L413.58 114.11Z" fill="#816EAB"/>
<path d="M353.18 141.57L352.75 141.34C352.403 141.159 352.121 140.876 351.94 140.53L343.02 115.44C342.994 115.38 342.981 115.315 342.982 115.249C342.982 115.184 342.996 115.119 343.022 115.059C343.048 115 343.086 114.946 343.134 114.901C343.182 114.856 343.238 114.822 343.3 114.8L355.12 108.23C355.493 108.158 355.88 108.222 356.21 108.41L356.64 108.63C356.99 108.811 357.273 109.098 357.45 109.45L366.37 134.54C366.394 134.6 366.406 134.665 366.405 134.73C366.404 134.795 366.39 134.859 366.364 134.919C366.338 134.978 366.3 135.032 366.253 135.077C366.206 135.122 366.151 135.157 366.09 135.18L354.27 141.75C353.897 141.812 353.513 141.749 353.18 141.57Z" fill="#8EAFEE"/>
<path opacity="0.2" d="M353.18 141.57L352.75 141.34C352.403 141.159 352.121 140.876 351.94 140.53L343.02 115.44C342.994 115.38 342.981 115.315 342.982 115.249C342.982 115.184 342.996 115.119 343.022 115.059C343.048 115 343.086 114.946 343.134 114.901C343.182 114.856 343.238 114.822 343.3 114.8L355.12 108.23C355.493 108.158 355.88 108.222 356.21 108.41L356.64 108.63C356.99 108.811 357.273 109.098 357.45 109.45L366.37 134.54C366.394 134.6 366.406 134.665 366.405 134.73C366.404 134.795 366.39 134.859 366.364 134.919C366.338 134.978 366.3 135.032 366.253 135.077C366.206 135.122 366.151 135.157 366.09 135.18L354.27 141.75C353.897 141.812 353.513 141.749 353.18 141.57Z" fill="black"/>
<path d="M354.18 141.77C353.835 141.796 353.489 141.727 353.18 141.57L352.75 141.34C352.398 141.161 352.114 140.874 351.94 140.52L343.02 115.44C342.975 115.314 342.975 115.176 343.02 115.05L344.72 115.94C344.669 116.065 344.669 116.205 344.72 116.33L353.64 141.41C353.677 141.521 353.751 141.617 353.848 141.682C353.946 141.747 354.063 141.778 354.18 141.77V141.77Z" fill="#8EAFEE"/>
<path opacity="0.4" d="M354.18 141.77C353.835 141.796 353.489 141.727 353.18 141.57L352.75 141.34C352.398 141.161 352.114 140.874 351.94 140.52L343.02 115.44C342.975 115.314 342.975 115.176 343.02 115.05L344.72 115.94C344.669 116.065 344.669 116.205 344.72 116.33L353.64 141.41C353.677 141.521 353.751 141.617 353.848 141.682C353.946 141.747 354.063 141.778 354.18 141.77V141.77Z" fill="black"/>
<path d="M344.72 116.33L353.65 141.41C353.689 141.538 353.777 141.645 353.895 141.709C354.013 141.773 354.151 141.787 354.28 141.75L366.1 135.18C366.161 135.157 366.216 135.122 366.263 135.077C366.31 135.032 366.348 134.978 366.374 134.918C366.4 134.859 366.414 134.795 366.415 134.73C366.416 134.665 366.404 134.6 366.38 134.54L357.46 109.45C357.419 109.324 357.33 109.218 357.212 109.157C357.094 109.095 356.957 109.082 356.83 109.12L345 115.68C344.939 115.704 344.883 115.74 344.836 115.786C344.789 115.832 344.751 115.886 344.725 115.947C344.699 116.007 344.685 116.072 344.684 116.138C344.684 116.203 344.696 116.269 344.72 116.33Z" fill="#8EAFEE"/>
<path opacity="0.3" d="M344.72 116.33L353.65 141.41C353.689 141.538 353.777 141.645 353.895 141.709C354.013 141.773 354.151 141.787 354.28 141.75L366.1 135.18C366.161 135.157 366.216 135.122 366.263 135.077C366.31 135.032 366.348 134.978 366.374 134.918C366.4 134.859 366.414 134.795 366.415 134.73C366.416 134.665 366.404 134.6 366.38 134.54L357.46 109.45C357.419 109.324 357.33 109.218 357.212 109.157C357.094 109.095 356.957 109.082 356.83 109.12L345 115.68C344.939 115.704 344.883 115.74 344.836 115.786C344.789 115.832 344.751 115.886 344.725 115.947C344.699 116.007 344.685 116.072 344.684 116.138C344.684 116.203 344.696 116.269 344.72 116.33Z" fill="black"/>
<path d="M346.37 117.76L356.89 111.93C357 111.899 357.118 111.911 357.219 111.965C357.32 112.02 357.395 112.111 357.43 112.22L364.61 132.44C364.65 132.545 364.647 132.661 364.602 132.764C364.557 132.866 364.474 132.948 364.37 132.99L353.89 138.99C353.836 139.007 353.779 139.013 353.723 139.009C353.667 139.004 353.612 138.988 353.562 138.962C353.512 138.936 353.467 138.9 353.431 138.857C353.395 138.814 353.367 138.764 353.35 138.71L346.12 118.35C346.094 118.295 346.08 118.236 346.079 118.175C346.078 118.115 346.09 118.055 346.113 117.999C346.137 117.943 346.172 117.893 346.216 117.852C346.26 117.811 346.313 117.78 346.37 117.76V117.76Z" fill="white"/>
<path d="M350.63 113.18C350.71 113.141 350.801 113.135 350.885 113.163C350.97 113.191 351.039 113.251 351.08 113.33C351.105 113.366 351.122 113.407 351.13 113.45C351.138 113.493 351.136 113.537 351.126 113.58C351.116 113.622 351.096 113.662 351.069 113.696C351.043 113.731 351.009 113.759 350.97 113.78C350.892 113.808 350.807 113.807 350.73 113.778C350.653 113.75 350.588 113.695 350.548 113.623C350.507 113.551 350.493 113.467 350.508 113.386C350.523 113.305 350.566 113.232 350.63 113.18V113.18Z" fill="#263238"/>
<path d="M350.15 114.57C350.74 114.26 351.76 113.67 352.32 113.35C352.368 113.324 352.424 113.319 352.476 113.334C352.528 113.348 352.573 113.383 352.6 113.43C352.625 113.476 352.631 113.531 352.616 113.581C352.601 113.632 352.566 113.675 352.52 113.7L350.34 114.93C350.293 114.952 350.239 114.957 350.19 114.942C350.14 114.927 350.097 114.894 350.07 114.85C350.054 114.827 350.044 114.801 350.04 114.773C350.035 114.746 350.037 114.718 350.045 114.691C350.052 114.665 350.066 114.64 350.084 114.619C350.102 114.598 350.125 114.581 350.15 114.57V114.57Z" fill="#263238"/>
<path d="M349.6 114.87C349.645 114.848 349.697 114.844 349.746 114.859C349.794 114.874 349.835 114.906 349.86 114.95C349.886 114.992 349.895 115.044 349.883 115.092C349.872 115.141 349.842 115.183 349.8 115.21C349.756 115.227 349.707 115.228 349.662 115.212C349.618 115.196 349.58 115.165 349.556 115.125C349.532 115.084 349.523 115.036 349.531 114.989C349.54 114.943 349.564 114.9 349.6 114.87V114.87Z" fill="#263238"/>
<path d="M359.88 136.48C360.05 136.432 360.231 136.451 360.388 136.533C360.544 136.614 360.663 136.753 360.72 136.92C360.754 137.001 360.77 137.088 360.769 137.176C360.768 137.264 360.749 137.351 360.714 137.431C360.678 137.511 360.627 137.584 360.563 137.644C360.498 137.704 360.423 137.75 360.34 137.78C360.169 137.833 359.984 137.817 359.824 137.735C359.665 137.652 359.545 137.51 359.49 137.34C359.458 137.258 359.443 137.17 359.445 137.082C359.448 136.994 359.468 136.908 359.504 136.828C359.54 136.748 359.592 136.675 359.657 136.616C359.721 136.556 359.797 136.51 359.88 136.48V136.48Z" fill="#263238"/>
<path d="M353.53 117.78L355.24 120.04C355.268 120.081 355.308 120.112 355.355 120.128C355.402 120.144 355.453 120.145 355.5 120.13L357.61 119.22C357.83 119.12 358.03 119.47 357.95 119.81L357.16 123.03C357.11 123.162 357.11 123.308 357.16 123.44L358.4 126.36C358.53 126.67 358.4 127.07 358.15 127.04L355.95 126.78C355.9 126.779 355.85 126.794 355.809 126.823C355.768 126.851 355.737 126.892 355.72 126.94L354.37 129.66C354.23 129.94 353.94 129.84 353.88 129.49L353.32 126.1C353.312 126.039 353.292 125.98 353.261 125.927C353.231 125.873 353.189 125.827 353.14 125.79L351.07 124.55C350.962 124.45 350.895 124.313 350.884 124.167C350.873 124.02 350.918 123.875 351.01 123.76L352.86 121.93C352.943 121.832 352.989 121.708 352.99 121.58L353.05 118.09C353.09 117.73 353.35 117.54 353.53 117.78Z" fill="#8EAFEE"/>
<path d="M403.78 120.38C397.26 120.94 394.48 122.13 389.59 130.95C384.28 140.53 374.08 157.85 372.78 160.04C370.98 163.04 370.64 167.71 372.2 170.51C373.65 173.12 378.2 174.31 383.47 168.41C389.68 161.41 401.23 144.27 401.23 144.27C401.23 144.27 411.05 131.33 403.78 120.38Z" fill="#FFA8A7"/>
<path d="M374.9 172.51C369.9 171.91 358.24 156.08 354.9 150.91C352.281 146.713 348.842 143.088 344.79 140.25C344 139.719 343.321 139.04 342.79 138.25C342.393 137.471 342.197 136.604 342.22 135.73C342.29 134.59 342.27 133.447 342.16 132.31C341.98 131.658 341.879 130.986 341.86 130.31C341.92 129.66 342.25 129.06 342.36 128.41C342.418 127.613 342.391 126.812 342.28 126.02C342.243 125.485 342.35 124.95 342.59 124.47C342.891 124.027 343.247 123.624 343.65 123.27C344.172 122.829 344.727 122.428 345.31 122.07L347.03 126.79L348.69 131.31C349.32 131.9 350.38 133.05 351.08 131.87C351.241 131.56 351.333 131.219 351.35 130.87C351.47 129.72 351.35 128.54 351.58 127.41C351.696 126.682 351.992 125.995 352.44 125.41C352.74 125.05 353.63 124.22 354.12 124.65C354.261 124.791 354.352 124.973 354.38 125.17C354.5 125.71 354.32 126.23 354.38 126.75C354.47 127.42 354.71 128.09 354.84 128.75C355.1 130.11 355.26 131.487 355.32 132.87C355.32 133.87 355.32 134.87 355.47 135.92C355.583 137.106 355.999 138.243 356.68 139.22C357.98 141.08 375.39 157.76 375.39 157.76L374.9 172.51Z" fill="#FFA8A7"/>
<path d="M405.03 120.04C401.08 119.94 396.34 120.57 392.66 125.34C388.98 130.11 374.28 156.08 374.28 156.08L366.03 148.68C364.434 149.69 363.052 151.004 361.964 152.549C360.876 154.093 360.103 155.837 359.69 157.68C361.938 161.232 364.434 164.62 367.16 167.82C370.65 171.65 374.54 174.3 377.73 173.13C380.92 171.96 384.17 169.42 391.04 159.86C397.91 150.3 405.41 139.01 405.41 139.01C405.41 139.01 410.14 127.93 405.03 120.04Z" fill="#816EAB"/>
<path d="M402.99 90.6799C402.99 90.6799 399.44 96.0799 399.84 96.6099C400.24 97.1399 402.84 97.6099 402.84 97.6099L402.99 90.6799Z" fill="#F28F8F"/>
<path d="M404.66 94.1499C403.821 94.1519 403 93.9049 402.302 93.4402C401.603 92.9755 401.058 92.314 400.736 91.5394C400.413 90.7648 400.328 89.912 400.49 89.0889C400.653 88.2657 401.056 87.5093 401.648 86.9153C402.241 86.3214 402.996 85.9165 403.819 85.7521C404.642 85.5877 405.495 85.6711 406.27 85.9917C407.046 86.3123 407.708 86.8558 408.175 87.5533C408.641 88.2507 408.89 89.0709 408.89 89.9099C408.89 91.0327 408.445 92.1096 407.652 92.9045C406.859 93.6994 405.783 94.1473 404.66 94.1499V94.1499ZM404.66 86.6199C404.006 86.6179 403.367 86.81 402.823 87.1719C402.279 87.5337 401.854 88.049 401.603 88.6524C401.352 89.2558 401.286 89.9202 401.413 90.5612C401.54 91.2023 401.854 91.7912 402.317 92.2533C402.779 92.7155 403.368 93.03 404.009 93.157C404.65 93.284 405.314 93.2178 405.917 92.9668C406.521 92.7158 407.036 92.2913 407.398 91.747C407.76 91.2028 407.952 90.5634 407.95 89.9099C407.947 89.0382 407.6 88.2029 406.983 87.5864C406.367 86.97 405.532 86.6225 404.66 86.6199Z" fill="#263238"/>
<path d="M412.86 75.77C405.67 77.28 403.59 80.45 402.92 91.87C402.21 103.81 403.43 107.56 404.99 109.17C406.05 110.25 411.99 110.45 414.9 109.63C418.62 108.63 427.01 105.63 430.9 99.63C435.53 92.56 436.74 82.99 431.79 79.06C424.87 73.53 415.79 75.15 412.86 75.77Z" fill="#FFA8A7"/>
<path d="M413.11 109.93L412.78 107.74C410.519 108.95 407.972 109.527 405.41 109.41C406.78 110.11 410.36 110.31 413.11 109.93Z" fill="#F28F8F"/>
<path d="M400.82 89.03L413.61 90.68L413.09 91.58L400.82 89.99V89.03Z" fill="#263238"/>
<path d="M402.47 80.5C402.3 81.5927 402.497 82.7111 403.03 83.68C403.512 84.5125 404.219 85.1923 405.07 85.6416C405.921 86.0908 406.881 86.2913 407.84 86.22C407.51 86.22 408.75 87.83 408.84 87.92C409.088 88.1617 409.383 88.3509 409.706 88.4763C410.029 88.6017 410.374 88.6608 410.72 88.65C410.98 90.25 410.86 91.92 412.64 92.65C412.64 92.65 413.77 88.24 417.49 88.8C421.21 89.36 421.74 94.13 419.38 97.02C417.02 99.91 414.85 98.83 414.83 98.81C415.04 98.92 415.12 100.33 415.19 100.59C415.443 101.428 415.778 102.238 416.19 103.01C417 104.562 418.152 105.91 419.56 106.95C420.739 107.919 422.13 108.597 423.62 108.93C424.97 109.15 426.55 108.54 427.91 108.36C431.352 103.682 434.241 98.6219 436.52 93.28C437.682 90.9207 438.385 88.3619 438.59 85.74C438.59 83.61 438.53 81.33 437.22 79.53C436.67 78.7769 435.974 78.1426 435.173 77.6649C434.373 77.1872 433.484 76.876 432.56 76.75C432.38 75.5807 431.923 74.4715 431.227 73.5147C430.531 72.558 429.617 71.7815 428.56 71.25C426.432 70.2042 424.066 69.7352 421.7 69.89C419.34 69.95 417 70.36 414.7 70.6C409.841 70.9619 404.959 70.8581 400.12 70.29C399.948 70.2541 399.769 70.2752 399.61 70.35C399.452 70.4808 399.348 70.6664 399.32 70.87C398.56 74.12 400.07 77.48 403.45 78.28C402.941 78.9254 402.604 79.6891 402.47 80.5V80.5Z" fill="#263238"/>
<path d="M412.59 95.2001L412.72 90.2001C412.392 90.1915 412.065 90.2477 411.758 90.3655C411.452 90.4832 411.171 90.6602 410.933 90.8863C410.695 91.1124 410.504 91.3833 410.37 91.6833C410.237 91.9834 410.164 92.3068 410.155 92.6351C410.146 92.9634 410.203 93.2901 410.32 93.5967C410.438 93.9033 410.615 94.1837 410.841 94.4219C411.067 94.6601 411.338 94.8514 411.638 94.9849C411.938 95.1184 412.262 95.1915 412.59 95.2001V95.2001Z" fill="#263238"/>
</g>
<defs>
<clipPath id="clip0_22_2">
<rect width="470.42" height="435.43" fill="white"/>
</clipPath>
</defs>
</svg>
